<?xml version="1.0" encoding="UTF-8" standalone="no"?>
<!-- Created with Inkscape (http://www.inkscape.org/) -->

<svg
   xmlns:dc="http://purl.org/dc/elements/1.1/"
   xmlns:cc="http://creativecommons.org/ns#"
   xmlns:rdf="http://www.w3.org/1999/02/22-rdf-syntax-ns#"
   xmlns:svg="http://www.w3.org/2000/svg"
   xmlns="http://www.w3.org/2000/svg"
   xmlns:sodipodi="http://sodipodi.sourceforge.net/DTD/sodipodi-0.dtd"
   xmlns:inkscape="http://www.inkscape.org/namespaces/inkscape"
   id="svg2"
   height="300"
   width="530"
   version="1.1"
   inkscape:version="0.91 r13725"
   sodipodi:docname="cat-seo.svg">
  <defs
     id="defs46" />
  <sodipodi:namedview
     pagecolor="#ffffff"
     bordercolor="#666666"
     borderopacity="1"
     objecttolerance="10"
     gridtolerance="10"
     guidetolerance="10"
     inkscape:pageopacity="0"
     inkscape:pageshadow="2"
     inkscape:window-width="1858"
     inkscape:window-height="1058"
     id="namedview44"
     showgrid="false"
     inkscape:zoom="0.44849866"
     inkscape:cx="547.07187"
     inkscape:cy="556.48318"
     inkscape:window-x="54"
     inkscape:window-y="-8"
     inkscape:window-maximized="1"
     inkscape:current-layer="svg2" />
  <metadata
     id="metadata7">
    <rdf:RDF>
      <cc:Work
         rdf:about="">
        <dc:format>image/svg+xml</dc:format>
        <dc:type
           rdf:resource="http://purl.org/dc/dcmitype/StillImage" />
        <dc:title></dc:title>
      </cc:Work>
    </rdf:RDF>
  </metadata>
  <g
     id="layer1"
     transform="matrix(0.70672661,0,0,0.70672661,-2.8920948,-223.17259)">
    <path
       id="path4301"
       style="color:#000000;text-indent:0;text-decoration:none;text-decoration-line:none;text-decoration-style:solid;text-decoration-color:#000000;text-transform:none;block-progression:tb;white-space:normal;isolation:auto;mix-blend-mode:normal;solid-color:#000000;fill:#1c1c1c;fill-rule:evenodd;color-rendering:auto;image-rendering:auto;shape-rendering:auto"
       d="m 676,374.04 33.985,160.58 3.4583,-0.73014 a 347.5,236.37 0 0 0 5.95,-36.94 l -17.52,-82.77 a 347.5,236.37 0 0 0 -25.867,-40.139 z"
       inkscape:connector-curvature="0" />
    <path
       id="path4303"
       d="M 659.37,355.62 376.46,357.37 26.76,464.88 A 347.5,236.37 0 0 0 25,488.6 347.5,236.37 0 0 0 61.119,593.26 l 49.796,-0.38167 596.02,-40.962 a 347.5,236.37 0 0 0 13.06,-63.32 347.5,236.37 0 0 0 -60.63,-132.98 z"
       inkscape:connector-curvature="0"
       style="fill:#1c1c1c" />
    <path
       id="path4208"
       d="m 374.83,418.75 -9.102,-32.379 c 0,0 -3.758,-17.206 -11.97,-2.9286 l -28.68,45.35 z"
       inkscape:connector-curvature="0"
       style="fill:#80a8b1;stroke:#aac5cb;stroke-width:1.69930005px" />
    <path
       id="path3804"
       d="m 421.53,415.64 21.314,-26.018 c 0,0 10.338,-14.258 12.14,2.1132 l 8.1068,53.037 z"
       inkscape:connector-curvature="0"
       style="fill:#80a8b1;stroke:#aac5cb;stroke-width:1.69930005px" />
    <rect
       id="rect4295"
       ry="6.71"
       transform="matrix(0.95403656,0.29969025,-0.29969025,0.95403656,0,0)"
       height="13.42"
       width="24.664"
       y="367.76999"
       x="420.84"
       style="fill:none;stroke:#ffff2b;stroke-width:3.39849997;stroke-linecap:round;stroke-linejoin:round" />
    <path
       id="path4269"
       d="m 296.23,346.96 c -15.866,-0.14928 -39.933,2.2724 -75.548,8.7121 -51.109,9.241 -112.97,28.773 -173.81,51.224 a 347.5,236.37 0 0 0 -21.229,73 c 128.84,-47.39 279.33,-99.1 279.33,-99.1 0,0 47.93,-33.303 -8.7353,-33.836 z"
       inkscape:connector-curvature="0"
       style="fill:#1c1c1c;fill-rule:evenodd" />
    <path
       id="path4267"
       d="m 455.11,337.24 c -115.66,0.23336 -256.09,18.901 -233,18.901 24.639,0 75.617,22.94 75.617,22.94 0,0 229.4,-11.045 232.8,-11.045 1.8255,0 76.724,5.965 150.41,11.865 a 347.5,236.37 0 0 0 -28.672,-31.032 c -57.063,-5.2899 -122.4,-10.306 -174.42,-11.42 -7.4343,-0.1593 -15.034,-0.22464 -22.744,-0.20909 z"
       inkscape:connector-curvature="0"
       style="fill:#faa600;fill-rule:evenodd" />
    <path
       id="path4206"
       d="m 426.21,415.45 16.506,-20.148 c 0,0 8.0054,-11.041 9.4012,1.6364 l 6.2778,41.072 z"
       inkscape:connector-curvature="0"
       style="fill:#709da7" />
    <path
       id="path4210"
       d="m 370.62,416.71 -7.0486,-25.074 c 0,0 -2.9102,-13.324 -9.2691,-2.2679 l -22.21,35.114 z"
       inkscape:connector-curvature="0"
       style="fill:#709da7" />
    <path
       id="path4923"
       d="M 385.47,403.94 C 296,399.99 281.78,514.05 254,655.21 l 241.85,0.49476 c -24.97,-254.11 -34.78,-248.42 -110.38,-251.76 z"
       inkscape:connector-curvature="0"
       style="fill:#81a8b1;stroke:#aac5cb;stroke-width:1.95879996px;stroke-linecap:round;stroke-linejoin:round" />
    <path
       id="path4395"
       d="m 477.74,360.15 c -24.366,-0.0445 -47.838,0.50779 -68.707,1.9416 -99.8,6.8565 -241.27,47.88 -382.15,102.22 a 347.5,236.37 0 0 0 -1.88,24.29 347.5,236.37 0 0 0 0.843,16.24 c 28.232,-13.7 232.45,-110.46 393.88,-121.63 111.3,-7.7023 210.51,-0.35341 267.57,5.9209 a 347.5,236.37 0 0 0 -15.585,-20.182 c -43.719,-3.4046 -122.57,-8.6679 -193.96,-8.7983 z M 719,502.22 c -25.057,3.3442 -165.02,21.98 -206.16,26.369 -45.059,4.8062 -320.82,30.039 -369.48,28.838 -28.013,-0.69167 -72.96,-4.5472 -106.39,-7.7131 a 347.5,236.37 0 0 0 335.53,175.26 347.5,236.37 0 0 0 346.5,-222.75 z"
       inkscape:connector-curvature="0"
       style="fill:#ffb017;fill-rule:evenodd" />
    <path
       id="path4212"
       d="m 482.95,454.55 c -5.8576,-4.2055 -14.569,-6.7588 -19.676,-6.7588 -5.1066,0 -20.126,-0.90116 -20.126,-0.90116 l -38.45,-8.3358 -1.2016,4.4308 -19.225,-3.9051 0.90119,-4.5059 -59.477,-14.118 c -2.5533,-0.4506 -5.7074,3.83 -2.9288,6.4584"
       inkscape:connector-curvature="0"
       style="fill:none;stroke:#000000;stroke-width:1.69930005px;stroke-linecap:round;stroke-linejoin:round" />
    <path
       id="path4214"
       d="m 381.03,456.4 -41.118,-9.2219 6.1771,-22.365 39.84,9.6479 z"
       inkscape:connector-curvature="0"
       style="fill-rule:evenodd" />
    <path
       id="path4216"
       d="m 439.9,469.54 -41.715,-8.2961 5.684,-22.718 40.436,8.7573 z"
       inkscape:connector-curvature="0"
       style="fill-rule:evenodd" />
    <path
       id="rect4220"
       d="m 366.12,429.1 -22.841,18.826 13.491,3.0262 22.61,-18.639 -13.26,-3.213 z"
       inkscape:connector-curvature="0"
       style="fill:#d6e3e6" />
    <path
       id="path4228"
       d="m 425.09,442.1 -24.004,19.707 6.9184,1.3796 23.832,-19.619 z"
       inkscape:connector-curvature="0"
       style="fill:#d6e3e6" />
    <path
       id="path4230"
       d="m 435.81,444.44 -24.004,19.707 3.4075,0.6098 23.832,-19.619 z"
       inkscape:connector-curvature="0"
       style="fill:#d6e3e6" />
    <rect
       id="rect4297"
       transform="matrix(0.94948,-0.31382,0.31382,0.94948,0,0)"
       ry="6.71"
       height="13.42"
       width="24.664"
       y="603.78003"
       x="281.69"
       style="fill:none;stroke:#ffff2b;stroke-width:3.39849997;stroke-linecap:round;stroke-linejoin:round" />
    <path
       id="path4256"
       style="color:#000000;text-indent:0;text-decoration:none;text-decoration-line:none;text-decoration-style:solid;text-decoration-color:#000000;text-transform:none;block-progression:tb;white-space:normal;isolation:auto;mix-blend-mode:normal;solid-color:#000000;fill:#1c1c1c;fill-rule:evenodd;color-rendering:auto;image-rendering:auto;shape-rendering:auto"
       d="m 502.19,374.1 c -6.5261,-0.0268 -13.084,-0.0138 -19.671,0.0432 -14.052,0.12133 -28.24,0.43498 -42.558,0.96247 -154.77,5.7019 -321.52,77.26 -414.43,123.67 a 347.5,236.37 0 0 0 1.1317,10.976 c 91.318,-45.84 259.36,-118.78 413.67,-124.47 14.22,-0.52389 28.312,-0.83536 42.269,-0.95584 73.913,-0.63806 144.02,4.1541 209.3,11.792 a 347.5,236.37 0 0 0 -7.3082,-11.112 c -57.37,-6.45 -118.4,-10.66 -182.4,-10.92 z m 217.07,124.61 c -13.373,1.7146 -26.745,3.4316 -40.65,5.1741 -159.89,20.038 -350.7,40.698 -536.46,46.644 -31.762,-0.40789 -72.446,-3.1334 -106.86,-5.8976 a 347.5,236.37 0 0 0 3.986,10.494 c 34.952,2.7178 73.735,5.2318 102.82,5.6023 a 5.0983,5.0983 0 0 0 0.22901,-0.003 c 186.34,-5.9559 377.49,-26.663 537.56,-46.723 13.207,-1.6551 25.852,-3.2876 38.618,-4.9252 a 347.5,236.37 0 0 0 0.76334,-10.365 z"
       inkscape:connector-curvature="0" />
    <path
       id="path4232"
       d="m 468.13,459.54 c 0,0 23.365,48.429 27.613,80.715 4.2482,32.286 -80.29,34.41 -80.29,34.41 0,0 -65.297,-0.0302 -64.023,-23.395 1.2744,-23.365 40.623,-28.943 61.474,-30.132 20.591,-1.1736 31.436,0 31.436,0 0,0 -12.807,-2.7573 -15.718,-18.267"
       inkscape:connector-curvature="0"
       style="fill:#81a8b1;fill-rule:evenodd;stroke:#aac5cb;stroke-width:1.69930005px;stroke-linecap:round;stroke-linejoin:round" />
    <path
       id="path4258"
       d="m 248.13,520.65 c 0,-19.215 -6.9874,-31.88 -34.5,-40.178 -27.513,-8.2976 -89.75,12.718 -97.824,29.696 -0.25831,1.8657 0.36469,3.1962 1.0868,4.2813 11.218,16.855 26.441,31.232 42.325,43.667 12.168,9.5256 39.657,31.506 47.538,30.859 7.8812,-0.64677 12.303,-2.3086 18.675,-4.645 l -34.335,-32.705 c 0,0 34.816,-3.4845 46.115,-9.1401 6.4997,-3.2532 10.988,-11.013 10.918,-21.836 z"
       inkscape:connector-curvature="0"
       style="fill:#ffba33;fill-rule:evenodd" />
    <path
       id="path4262"
       d="m 198.53,478.6 c -30.539,0.0411 -75.911,17.241 -82.723,31.566 -0.0509,0.36791 -0.0415,0.70035 -0.0299,1.0288 l 131.63,0 c -2.3512,-14.035 -11.056,-23.875 -33.773,-30.726 -4.2989,-1.2965 -9.4456,-1.8761 -15.101,-1.8685 z"
       inkscape:connector-curvature="0"
       style="fill:#ffec93;fill-rule:evenodd" />
    <path
       id="path4271"
       style="color:#000000;text-indent:0;text-decoration:none;text-decoration-line:none;text-decoration-style:solid;text-decoration-color:#000000;text-transform:none;block-progression:tb;white-space:normal;isolation:auto;mix-blend-mode:normal;solid-color:#000000;fill-rule:evenodd;color-rendering:auto;image-rendering:auto;shape-rendering:auto"
       d="m 127.87,555.78 a 2.5492,2.5492 0 0 0 -1.9615,0.87619 l -29.312,32.711 a 2.5492,2.5492 0 0 0 -0.64054,1.4636 l -3.4782,37.261 a 347.5,236.37 0 0 0 4.7029,4.4738 l 3.7736,-40.424 28.751,-32.084 a 2.5492,2.5492 0 0 0 -1.8353,-4.278 z"
       inkscape:connector-curvature="0" />
    <rect
       id="rect4273"
       transform="matrix(0.84590473,0.53333403,-0.53333403,0.84590473,0,0)"
       ry="6.71"
       height="13.42"
       width="24.664"
       y="247.59"
       x="511.69"
       style="fill:none;stroke:#ffff2b;stroke-width:3.39849997;stroke-linecap:round;stroke-linejoin:round" />
    <rect
       id="rect4275"
       ry="6.71"
       transform="matrix(0.99893,0.046154,-0.046154,0.99893,0,0)"
       height="13.42"
       width="24.664"
       y="480"
       x="353.64999"
       style="fill:none;stroke:#ffff2b;stroke-width:3.39849997;stroke-linecap:round;stroke-linejoin:round" />
    <rect
       id="rect4277"
       transform="matrix(1,8.327664e-5,-8.327664e-5,1,0,0)"
       ry="6.71"
       height="13.42"
       width="24.664"
       y="497.28"
       x="371.23999"
       style="fill:none;stroke:#ffff2b;stroke-width:3.39849997;stroke-linecap:round;stroke-linejoin:round" />
    <rect
       id="rect4279"
       ry="6.71"
       transform="matrix(0.98648851,-0.16383046,0.16383046,0.98648851,0,0)"
       height="13.42"
       width="24.664"
       y="556.75"
       x="324.14999"
       style="fill:none;stroke:#ffff2b;stroke-width:3.39849997;stroke-linecap:round;stroke-linejoin:round" />
    <rect
       id="rect4281"
       transform="matrix(0.9537,-0.30075,0.30075,0.9537,0,0)"
       ry="6.71"
       height="13.42"
       width="24.664"
       y="600.09003"
       x="281.48001"
       style="fill:none;stroke:#ffff2b;stroke-width:3.39849997;stroke-linecap:round;stroke-linejoin:round" />
    <path
       id="path4283"
       d="m 300.46,489.84 -12.31,-8.41"
       inkscape:connector-curvature="0"
       style="fill:none;stroke:#ffff2b;stroke-width:3.39849997;stroke-linecap:round;stroke-linejoin:round" />
    <path
       id="path4285"
       d="m 335.01,502.76 -19.826,-3.6047"
       inkscape:connector-curvature="0"
       style="fill:none;stroke:#ffff2b;stroke-width:3.39849997;stroke-linecap:round;stroke-linejoin:round" />
    <path
       id="path4287"
       d="m 374.66,504.86 -22.229,-1.2016"
       inkscape:connector-curvature="0"
       style="fill:none;stroke:#ffff2b;stroke-width:3.39849997;stroke-linecap:round;stroke-linejoin:round" />
    <path
       id="path4289"
       d="m 415.51,502.76 -22.529,1.2016"
       inkscape:connector-curvature="0"
       style="fill:none;stroke:#ffff2b;stroke-width:3.39849997;stroke-linecap:round;stroke-linejoin:round" />
    <path
       id="path4291"
       d="m 454.56,494.05 -21.929,5.407"
       inkscape:connector-curvature="0"
       style="fill:none;stroke:#ffff2b;stroke-width:3.39849997;stroke-linecap:round;stroke-linejoin:round" />
    <path
       id="path4293"
       d="m 483.1,482.63 -12.62,5.11"
       inkscape:connector-curvature="0"
       style="fill:none;stroke:#ffff2b;stroke-width:3.39849997;stroke-linecap:round;stroke-linejoin:round" />
    <path
       id="path4406"
       d="m 380.78,460.65 c 1.1812,-1.4419 3.7354,0.12897 5.5757,0.42481 1.8904,0.3039 5.0314,-0.45504 5.5757,1.3807 0.42013,1.4168 -1.8062,2.4062 -3.0268,3.2392 -1.3059,0.89121 -2.8776,2.1512 -4.4075,1.7524 -1.4124,-0.36823 -2.0896,-2.1026 -2.7613,-3.3985 -0.54159,-1.0448 -1.7016,-2.4882 -0.95584,-3.3985 z"
       inkscape:connector-curvature="0"
       style="fill:#79364b;fill-rule:evenodd" />
    <path
       id="path4408"
       d="m 390.56,484.37 c 0.70983,-1.1602 2.3118,-5.6452 0.33584,-8.2069 -3.7243,-4.8284 -8.3349,6.8335 -8.3349,6.8335 0,0 -0.45914,-11.717 -4.3877,-10.902 -4.102,0.85104 -4.6134,10.325 -4.6134,10.325"
       inkscape:connector-curvature="0"
       style="fill:none;stroke:#79364b;stroke-width:1.69930005px;stroke-linecap:round;stroke-linejoin:round" />
    <path
       id="path4412"
       d="m 402.4,521.14 c 2.9288,-0.30038 9.4778,-0.84963 13.42,-0.96228 0,0 4.261,12.046 4.261,27.552 0,15.506 -1.6993,27.613 -1.6993,27.613 -4.3013,0.21241 -8.7884,0.0265 -14.895,-0.29206 0,0 3.2127,-19.674 3.2127,-27.109 0,-7.4343 -3.8426,-24.47 -4.2997,-26.802 z"
       inkscape:connector-curvature="0"
       style="fill:#ffff2b;fill-rule:evenodd" />
    <circle
       id="path4410"
       cx="412.01001"
       cy="549.42999"
       r="12.882"
       style="fill:#1c1c1c;stroke:#ffff2b;stroke-width:3.12299991;stroke-linecap:round;stroke-linejoin:round" />
    <path
       id="path4414"
       d="m 405.1,555.59 7.5405,-6.0536 -4.5668,-8.7087"
       inkscape:connector-curvature="0"
       style="fill:none;stroke:#ffffff;stroke-width:1.69930005px;stroke-linecap:round;stroke-linejoin:round" />
  </g>
</svg>
