<?xml version="1.0" encoding="UTF-8" standalone="no"?>
<svg
   xmlns:dc="http://purl.org/dc/elements/1.1/"
   xmlns:cc="http://creativecommons.org/ns#"
   xmlns:rdf="http://www.w3.org/1999/02/22-rdf-syntax-ns#"
   xmlns:svg="http://www.w3.org/2000/svg"
   xmlns="http://www.w3.org/2000/svg"
   xmlns:xlink="http://www.w3.org/1999/xlink"
   xmlns:sodipodi="http://sodipodi.sourceforge.net/DTD/sodipodi-0.dtd"
   xmlns:inkscape="http://www.inkscape.org/namespaces/inkscape"
   sodipodi:docname="promo.svg"
   inkscape:version="1.0 (4035a4fb49, 2020-05-01)"
   id="svg853"
   version="1.1"
   viewBox="0 0 190.5 338.66668"
   height="1280"
   width="720">
  <defs
     id="defs847">
    <linearGradient
       id="linearGradient1581"
       inkscape:collect="always">
      <stop
         id="stop1577"
         offset="0"
         style="stop-color:#847c9d;stop-opacity:1" />
      <stop
         id="stop1579"
         offset="1"
         style="stop-color:#ff8ba8;stop-opacity:1" />
    </linearGradient>
    <linearGradient
       inkscape:collect="always"
       id="linearGradient1573">
      <stop
         style="stop-color:#4296a8;stop-opacity:1"
         offset="0"
         id="stop1569" />
      <stop
         style="stop-color:#000000;stop-opacity:1"
         offset="1"
         id="stop1571" />
    </linearGradient>
    <linearGradient
       id="linearGradient1550-2"
       inkscape:collect="always">
      <stop
         id="stop1546"
         offset="0"
         style="stop-color:#d9724f;stop-opacity:1" />
      <stop
         id="stop1548"
         offset="1"
         style="stop-color:#a7884f;stop-opacity:1" />
    </linearGradient>
    <linearGradient
       id="linearGradient1542"
       inkscape:collect="always">
      <stop
         id="stop1538"
         offset="0"
         style="stop-color:#d6c34f;stop-opacity:1" />
      <stop
         id="stop1540"
         offset="1"
         style="stop-color:#ffaa4f;stop-opacity:1" />
    </linearGradient>
    <linearGradient
       gradientUnits="userSpaceOnUse"
       y2="267.15775"
       x2="81.470329"
       y1="306.92316"
       x1="26.873726"
       id="linearGradient1544"
       xlink:href="#linearGradient1542"
       inkscape:collect="always" />
    <linearGradient
       gradientUnits="userSpaceOnUse"
       y2="333.92496"
       x2="174.63242"
       y1="292.89999"
       x1="126.47974"
       id="linearGradient1552"
       xlink:href="#linearGradient1550-2"
       inkscape:collect="always" />
    <linearGradient
       gradientUnits="userSpaceOnUse"
       y2="261.40207"
       x2="116.54966"
       y1="203.45966"
       x1="112.3155"
       id="linearGradient1562"
       xlink:href="#linearGradient1573"
       inkscape:collect="always" />
    <linearGradient
       gradientUnits="userSpaceOnUse"
       y2="314.53137"
       x2="90.522453"
       y1="237.2048"
       x1="99.306656"
       id="linearGradient1583"
       xlink:href="#linearGradient1581"
       inkscape:collect="always" />
  </defs>
  <sodipodi:namedview
     inkscape:snap-nodes="false"
     inkscape:window-maximized="1"
     inkscape:window-y="0"
     inkscape:window-x="1920"
     inkscape:window-height="1056"
     inkscape:window-width="1920"
     units="px"
     showgrid="false"
     inkscape:document-rotation="0"
     inkscape:current-layer="layer4"
     inkscape:document-units="mm"
     inkscape:cy="816.77474"
     inkscape:cx="182.48256"
     inkscape:zoom="0.49497475"
     inkscape:pageshadow="2"
     inkscape:pageopacity="0.0"
     borderopacity="1.0"
     bordercolor="#666666"
     pagecolor="#ffffff"
     id="base" />
  <metadata
     id="metadata850">
    <rdf:RDF>
      <cc:Work
         rdf:about="">
        <dc:format>image/svg+xml</dc:format>
        <dc:type
           rdf:resource="http://purl.org/dc/dcmitype/StillImage" />
        <dc:title></dc:title>
      </cc:Work>
    </rdf:RDF>
  </metadata>
  <g
     sodipodi:insensitive="true"
     inkscape:label="space"
     id="layer7"
     inkscape:groupmode="layer" />
  <g
     sodipodi:insensitive="true"
     inkscape:label="mountains"
     id="layer6"
     inkscape:groupmode="layer">
    <path
       style="display:inline;fill:#dcaeba;fill-opacity:1;stroke:none;stroke-width:1.41911;stroke-linecap:round;stroke-linejoin:round"
       d="m 86.78102,158.17299 -14.922085,-14.16653 -8.311008,5.09996 -8.122152,4.15551 -7.74437,1.88885 h -8.499911 l -13.599882,-1.32221 -13.97764,-3.21107 -8.1221274,-1.88887 -11.3332147,10.38879 -15.1109599,11.89988 -10.982892,7.43308 c 3.539282,10.34553 23.739648,30.11113 23.739648,30.11113 z"
       id="path1799"
       sodipodi:nodetypes="cccccccccccccc" />
    <path
       style="display:inline;fill:#cc7187;fill-opacity:1;stroke-width:1.41911;stroke-linecap:round;stroke-linejoin:round"
       d="M -22.594336,207.42691 223.42927,93.814626 c 0,0 57.3687,120.722294 -70.80906,158.622774 -86.615795,25.61117 -175.214546,-45.01049 -175.214546,-45.01049 z"
       id="path975"
       sodipodi:nodetypes="ccsc" />
    <path
       style="display:inline;opacity:1;fill:none;fill-opacity:1;stroke:#270011;stroke-width:1.41911;stroke-linecap:butt;stroke-linejoin:round;stroke-miterlimit:4;stroke-dasharray:none;stroke-opacity:1"
       d="M -37.286295,180.17999 C -15.248369,166.62331 3.8512056,148.65904 3.8512056,148.65904"
       id="path1758"
       sodipodi:nodetypes="cc" />
    <path
       style="display:inline;opacity:1;fill:none;fill-opacity:1;stroke:#270011;stroke-width:1.41911;stroke-linecap:butt;stroke-linejoin:round;stroke-miterlimit:4;stroke-dasharray:none;stroke-opacity:1"
       d="m 71.968459,143.85077 c 0,0 10.617474,11.1059 13.356351,13.08921"
       id="path1760"
       sodipodi:nodetypes="cc" />
    <path
       style="display:inline;opacity:1;fill:#cc7187;fill-opacity:1;stroke:#270011;stroke-width:1.41866;stroke-linecap:round;stroke-linejoin:round;stroke-miterlimit:4;stroke-dasharray:none;stroke-opacity:1"
       d="m 3.8512056,148.65904 c 0,0 29.1716284,8.29958 43.8087444,6.41104 10.626884,-1.37111 24.308509,-11.21931 24.308509,-11.21931 -19.455343,-6.79993 -36.251882,-7.0846 -45.41151,-5.87678 -5.246774,0.69184 -13.355841,4.26291 -22.7057434,10.68505 z"
       id="path1762"
       sodipodi:nodetypes="cscsc" />
    <path
       style="display:inline;opacity:1;fill:none;fill-opacity:1;stroke:#270011;stroke-width:1.41911;stroke-linecap:butt;stroke-linejoin:round;stroke-miterlimit:4;stroke-dasharray:none;stroke-opacity:1"
       d="m -17.385376,166.22263 c 0,0 -9.814922,-0.44065 -18.031046,-3.40587"
       id="path1764"
       sodipodi:nodetypes="cc" />
  </g>
  <g
     sodipodi:insensitive="true"
     style="display:inline;mix-blend-mode:normal"
     inkscape:label="player 1"
     id="layer2"
     inkscape:groupmode="layer">
    <path
       sodipodi:nodetypes="cccccc"
       id="path1554"
       d="m 87.713684,221.85535 c 0,0 -7.977977,-31.93674 -11.15699,-68.93501 6.26426,-15.30521 54.415156,-11.07984 54.415156,-11.07984 16.58647,6.21301 20.64931,34.5338 20.64931,34.5338 0,0 0.71258,36.90859 -0.0193,44.7592 z"
       style="fill:url(#linearGradient1562);fill-opacity:1;stroke:none;stroke-width:0.264583px;stroke-linecap:butt;stroke-linejoin:miter;stroke-opacity:1" />
    <path
       sodipodi:nodetypes="cccsscsc"
       id="path1435"
       d="m 95.651577,102.17966 c 3.47855,-2.179734 9.759873,13.75231 9.759873,13.75231 2.78189,-0.62902 4.21834,-0.0922 6.65865,0.16996 0,0 8.38964,-19.138612 11.83418,-15.4761 4.15619,4.41917 6.56375,14.37364 7.61428,22.61113 3.29644,25.84815 -9.89373,27.56241 -22.07568,28.13519 -13.431193,0.009 -20.302005,-1.40747 -23.439881,-11.7886 -3.137876,-10.38112 -1.121941,-29.5708 9.648578,-37.40389 z"
       style="fill:#4296a8;fill-opacity:1;stroke:#270011;stroke-width:1.37094;stroke-linecap:butt;stroke-linejoin:miter;stroke-miterlimit:4;stroke-dasharray:none;stroke-opacity:1" />
    <path
       sodipodi:nodetypes="sssss"
       id="path1437"
       d="m 95.712907,126.30352 c 0.15578,-2.9248 3.08644,-6.61298 6.008443,-6.41147 2.76282,0.19053 5.09818,4.03192 4.79519,6.78469 -0.30752,2.79388 -3.44964,5.92641 -6.24798,5.66265 -2.509583,-0.23656 -4.689713,-3.51873 -4.555653,-6.03587 z"
       style="fill:#ffffff;fill-opacity:1;stroke:#270011;stroke-width:1.37094;stroke-linecap:butt;stroke-linejoin:miter;stroke-miterlimit:4;stroke-dasharray:none;stroke-opacity:1" />
    <path
       sodipodi:nodetypes="sssss"
       id="path1439"
       d="m 109.12168,125.92514 c -0.39206,-2.55457 1.70009,-6.1598 4.2653,-6.47485 3.32387,-0.40821 7.37215,3.45428 7.39262,6.80307 0.0146,2.39029 -2.82821,4.83354 -5.217,4.92004 -2.76766,0.10026 -6.02078,-2.51085 -6.44092,-5.24826 z"
       style="fill:#ffffff;fill-opacity:1;stroke:#270011;stroke-width:1.37094;stroke-linecap:butt;stroke-linejoin:miter;stroke-miterlimit:4;stroke-dasharray:none;stroke-opacity:1" />
    <path
       sodipodi:nodetypes="ssss"
       id="path1441"
       d="m 104.70646,137.6052 c -0.28629,-1.18284 5.73287,-2.81371 5.72176,-0.85358 -0.004,0.71077 -0.7796,2.25353 -2.30364,3.01616 -1.20572,0.60334 -3.24728,-1.4568 -3.41812,-2.16258 z"
       style="fill:#b78a94;fill-opacity:1;stroke:#270011;stroke-width:1.37094;stroke-linecap:butt;stroke-linejoin:miter;stroke-miterlimit:4;stroke-dasharray:none;stroke-opacity:1" />
    <ellipse
       ry="2.7942464"
       rx="2.6268437"
       cy="123.91896"
       cx="102.37917"
       id="path1443"
       style="fill:#000000;fill-opacity:1;stroke:#270011;stroke-width:1.37094;stroke-miterlimit:4;stroke-dasharray:none;stroke-opacity:1" />
    <ellipse
       style="fill:#000000;fill-opacity:1;stroke:#270011;stroke-width:1.37094;stroke-miterlimit:4;stroke-dasharray:none;stroke-opacity:1"
       id="ellipse1445"
       cx="114.93345"
       cy="123.34832"
       rx="2.6268437"
       ry="2.7942464" />
    <path
       sodipodi:nodetypes="ccc"
       id="path1451"
       d="m 52.264808,171.73775 c -0.500545,11.58517 -16.899159,9.96702 -2.653002,-10.44551 0,0 6.27129,-9.15666 9.941847,0.83794"
       style="fill:#4296a8;fill-opacity:1;stroke:#270011;stroke-width:1.37094;stroke-linecap:round;stroke-linejoin:round;stroke-miterlimit:4;stroke-dasharray:none;stroke-opacity:1" />
    <path
       sodipodi:nodetypes="csc"
       id="path1471"
       d="m 159.72484,143.30626 c -2.57558,-10.79791 2.81056,-12.56488 6.67674,-12.51895 25.25882,0.30008 16.76414,16.39618 3.13658,11.16727"
       style="fill:#4296a8;fill-opacity:1;stroke:#270011;stroke-width:1.37094;stroke-linecap:round;stroke-linejoin:round;stroke-miterlimit:4;stroke-dasharray:none;stroke-opacity:1" />
    <path
       sodipodi:nodetypes="cc"
       id="path1473"
       d="m 79.983913,183.08031 c 0.477779,9.71502 7.557492,38.30603 7.557492,38.30603"
       style="fill:none;stroke:#270011;stroke-width:1.37094;stroke-linecap:round;stroke-linejoin:round;stroke-miterlimit:4;stroke-dasharray:none;stroke-opacity:1" />
    <path
       sodipodi:nodetypes="ccccc"
       d="m -11.453197,213.08414 206.183667,7.09271 V 341.42874 H -18.342127 Z"
       style="opacity:1;fill:url(#linearGradient1583);fill-opacity:1;stroke:none;stroke-width:1.05833;stroke-linecap:round;stroke-linejoin:round;stroke-miterlimit:4;stroke-dasharray:none;stroke-opacity:1"
       id="rect1575" />
    <path
       sodipodi:nodetypes="cssccsc"
       id="path1447"
       d="m 89.251618,149.70596 c 0,0 -7.515924,-17.93058 -14.265591,-15.76766 -11.493537,3.68308 -0.04865,33.49205 -4.162146,35.9677 -3.173206,1.90974 -6.618304,-2.32425 -11.270228,-7.77582 0,0 -6.373402,4.94118 -7.288845,9.60757 0,0 13.173242,17.59334 26.768257,11.54106 8.292904,-3.69187 1.644533,-29.89211 1.644533,-29.89211"
       style="fill:#4296a8;fill-opacity:1;stroke:#270011;stroke-width:1.37094;stroke-linecap:round;stroke-linejoin:round;stroke-miterlimit:4;stroke-dasharray:none;stroke-opacity:1" />
    <path
       sodipodi:nodetypes="cc"
       id="path1475"
       d="m 151.15046,175.96219 c 1.95997,13.27874 0.24004,39.78364 0.24004,39.78364"
       style="fill:none;stroke:#270011;stroke-width:1.37094;stroke-linecap:round;stroke-linejoin:round;stroke-miterlimit:4;stroke-dasharray:none;stroke-opacity:1" />
    <path
       sodipodi:nodetypes="sssss"
       id="path1477"
       d="m 125.66946,174.45534 c -1.57594,-0.85332 4.40834,-13.21514 5.67202,-13.32316 1.44648,-0.12358 11.39003,8.7448 9.73254,11.30543 -1.36844,2.11408 -8.25705,-1.66665 -9.16499,-1.5261 -1.2954,0.20052 -4.13622,4.68274 -6.23957,3.54383 z"
       style="fill:#b78a94;fill-opacity:1;stroke:#270011;stroke-width:1.37094;stroke-linecap:round;stroke-linejoin:round;stroke-miterlimit:4;stroke-dasharray:none;stroke-opacity:1" />
    <path
       style="fill:#4296a8;fill-opacity:1;stroke:#270011;stroke-width:1.48028;stroke-linecap:round;stroke-linejoin:round;stroke-miterlimit:4;stroke-dasharray:none;stroke-opacity:1"
       d="m 130.07945,142.80888 c 0,0 8.8017,-18.06553 16.6333,-15.76767 11.30642,3.31741 1.02825,21.07111 7.95654,33.60996 0,0 4.75266,-6.15494 5.05555,-17.34491 0,0 5.49633,-2.42732 9.81332,-1.35168 0,0 1.79529,37.75098 -12.8266,36.16324 -10.28965,-1.1173 -14.70793,-18.97791 -14.70793,-18.97791"
       id="path1449"
       sodipodi:nodetypes="cssccsc" />
    <path
       sodipodi:nodetypes="cscscsc"
       id="path1491"
       d="m 95.871127,117.27985 c 0,0 -4.86133,0.72963 -5.17521,-0.99903 -0.2834,-1.56085 4.05745,-2.48723 4.05745,-2.48723 0,0 -3.03965,-2.09647 -2.3338,-3.21784 0.71529,-1.1364 3.96301,0.72223 3.96301,0.72223 0,0 0.19735,-2.4513 1.0964,-2.46461 1.53717,-0.0227 1.99834,4.15661 1.99834,4.15661"
       style="fill:none;stroke:#270011;stroke-width:1.37094;stroke-linecap:round;stroke-linejoin:round;stroke-miterlimit:4;stroke-dasharray:none;stroke-opacity:1" />
    <path
       style="fill:none;stroke:#270011;stroke-width:1.37094;stroke-linecap:round;stroke-linejoin:round;stroke-miterlimit:4;stroke-dasharray:none;stroke-opacity:1"
       d="m 121.32569,117.33379 c 0,0 4.73881,1.30707 5.25766,-0.3715 0.46846,-1.51561 -3.73007,-2.95567 -3.73007,-2.95567 0,0 3.26905,-1.71698 2.70271,-2.91487 -0.57392,-1.21394 -4.02102,0.24198 -4.02102,0.24198 0,0 0.0979,-2.45729 -0.79305,-2.57826 -1.52337,-0.20677 -2.48218,3.8871 -2.48218,3.8871"
       id="path1493"
       sodipodi:nodetypes="cscscsc" />
    <ellipse
       ry="40.302853"
       rx="37.547379"
       cy="118.21136"
       cx="108.44498"
       id="path1433"
       style="fill:#4296a8;fill-opacity:0.25;stroke:#270011;stroke-width:1.37094;stroke-miterlimit:4;stroke-dasharray:none;stroke-opacity:1" />
    <path
       sodipodi:nodetypes="ccsssccc"
       id="path1479"
       d="M 91.961127,97.528028 80.447283,85.946345 c 0,0 -50.602596,-1.110386 -52.987678,-19.816245 C 24.610445,43.784552 60.683439,31.650158 82.792179,27.33219 107.56252,22.494397 152.51755,19.372445 156.5859,44.280723 160.64994,69.162735 92.087887,83.786261 92.087887,83.786261 l -0.12681,13.741767 z"
       style="fill:#ffffd7;fill-opacity:1;stroke:#270011;stroke-width:1.37094;stroke-linecap:butt;stroke-linejoin:miter;stroke-miterlimit:4;stroke-dasharray:none;stroke-opacity:1" />
    <text
       transform="matrix(0.97853931,-0.22115605,0.22273759,0.97159125,0,0)"
       id="text1483"
       y="69.889542"
       x="32.762432"
       style="font-style:normal;font-weight:normal;font-size:14.5173px;line-height:1.25;font-family:sans-serif;fill:#270011;fill-opacity:1;stroke:none;stroke-width:0.362933;stroke-opacity:1"
       xml:space="preserve"><tspan
         style="font-style:normal;font-variant:normal;font-weight:normal;font-stretch:normal;font-family:'PT Sans';-inkscape-font-specification:'PT Sans';fill:#270011;fill-opacity:1;stroke:none;stroke-width:0.362933;stroke-opacity:1"
         y="69.889542"
         x="32.762432"
         id="tspan1481"
         sodipodi:role="line">ЭТО КРУПНОЕ</tspan><tspan
         id="tspan1485"
         style="font-style:normal;font-variant:normal;font-weight:normal;font-stretch:normal;font-family:'PT Sans';-inkscape-font-specification:'PT Sans';fill:#270011;fill-opacity:1;stroke:none;stroke-width:0.362933;stroke-opacity:1"
         y="88.184738"
         x="32.762432"
         sodipodi:role="line">ЖИВОТНОЕ...</tspan></text>
    <path
       style="display:inline;opacity:1;fill:none;fill-opacity:1;stroke:#270011;stroke-width:2.11525;stroke-linecap:round;stroke-linejoin:round;stroke-miterlimit:4;stroke-dasharray:none;stroke-opacity:1"
       d="m 154.29939,12.18562 v 9.431751"
       id="path5524" />
    <path
       style="display:inline;opacity:1;fill:none;fill-opacity:1;stroke:#270011;stroke-width:2.11525;stroke-linecap:round;stroke-linejoin:round;stroke-miterlimit:4;stroke-dasharray:none;stroke-opacity:1"
       d="m 159.01527,16.901496 h -9.43175"
       id="path5526" />
    <path
       id="path1530"
       d="m 175.58177,52.646075 v 9.431751"
       style="display:inline;opacity:1;fill:none;fill-opacity:1;stroke:#270011;stroke-width:2.11525;stroke-linecap:round;stroke-linejoin:round;stroke-miterlimit:4;stroke-dasharray:none;stroke-opacity:1" />
    <path
       id="path1532"
       d="M 180.29765,57.361951 H 170.8659"
       style="display:inline;opacity:1;fill:none;fill-opacity:1;stroke:#270011;stroke-width:2.11525;stroke-linecap:round;stroke-linejoin:round;stroke-miterlimit:4;stroke-dasharray:none;stroke-opacity:1" />
    <path
       style="display:inline;opacity:1;fill:none;fill-opacity:1;stroke:#270011;stroke-width:2.11525;stroke-linecap:round;stroke-linejoin:round;stroke-miterlimit:4;stroke-dasharray:none;stroke-opacity:1"
       d="M 156.2402,81.390929 V 90.82268"
       id="path1534" />
    <path
       style="display:inline;opacity:1;fill:none;fill-opacity:1;stroke:#270011;stroke-width:2.11525;stroke-linecap:round;stroke-linejoin:round;stroke-miterlimit:4;stroke-dasharray:none;stroke-opacity:1"
       d="m 160.95608,86.106805 h -9.43175"
       id="path1536" />
  </g>
  <g
     sodipodi:insensitive="true"
     style="display:inline"
     inkscape:label="player_left"
     id="layer3"
     inkscape:groupmode="layer">
    <path
       sodipodi:nodetypes="cccsssc"
       id="path1495"
       d="m 34.403261,237.93628 5.813571,18.03244 11.192048,-17.34249 c 0,0 38.973177,-13.83481 37.346387,-29.64546 -1.71856,-16.70258 -28.374886,-24.95344 -45.003827,-22.62792 -15.390915,2.15238 -34.8372567,16.0348 -34.3099267,31.56654 0.361902,10.65928 24.9617477,20.01689 24.9617477,20.01689 z"
       style="fill:#ffffd7;fill-opacity:1;stroke:#270011;stroke-width:1.02855;stroke-linecap:butt;stroke-linejoin:miter;stroke-miterlimit:4;stroke-dasharray:none;stroke-opacity:1" />
    <text
       transform="rotate(-8.0788008)"
       xml:space="preserve"
       style="font-style:normal;font-weight:normal;font-size:15.339px;line-height:1.25;font-family:sans-serif;fill:#000000;fill-opacity:1;stroke:none;stroke-width:0.383478;stroke-opacity:1"
       x="-5.8298316"
       y="220.87933"
       id="text1505"><tspan
         sodipodi:role="line"
         id="tspan1503"
         x="-5.8298316"
         y="220.87933"
         style="font-style:normal;font-variant:normal;font-weight:normal;font-stretch:normal;font-family:'PT Sans';-inkscape-font-specification:'PT Sans';stroke:none;stroke-width:0.383478;stroke-opacity:1">СЛОН?</tspan></text>
    <path
       sodipodi:nodetypes="cccsccscccc"
       id="path1507"
       d="m -16.24797,343.56453 c 0,0 -3.90609,-45.71177 11.53551,-76.16542 0,0 -2.1834077,-32.89721 9.4386395,-33.6377 10.6941975,-0.68138 12.5431215,29.59968 12.5431215,29.59968 23.572521,-6.66776 37.464703,-0.087 37.464703,-0.087 0,0 11.670633,-33.83055 23.707747,-29.80105 12.252291,4.10151 1.005844,38.74864 1.005844,38.74864 7.4893,23.30431 2.03767,27.84688 16.890077,33.68589 -0.64622,8.92665 -9.186759,22.08529 -9.186759,22.08529 1.045155,8.75313 0.863464,17.32914 0.863464,17.32914 z"
       style="fill:url(#linearGradient1544);fill-opacity:1;stroke:#270011;stroke-width:0.925084;stroke-linecap:butt;stroke-linejoin:miter;stroke-miterlimit:4;stroke-dasharray:none;stroke-opacity:1" />
    <path
       sodipodi:nodetypes="cscscsc"
       id="path1613"
       d="m 37.95883,266.8091 c 0,0 7.547814,0.0224 7.638499,-2.67375 0.08185,-2.43437 -6.719317,-2.87197 -6.719317,-2.87197 0,0 4.149234,-3.86376 2.826485,-5.40954 -1.340462,-1.56651 -5.85889,1.98242 -5.85889,1.98242 0,0 -0.847398,-3.67969 -2.21608,-3.49906 -2.340185,0.30893 -2.107146,6.7607 -2.107146,6.7607"
       style="display:inline;mix-blend-mode:normal;fill:#e8b84f;fill-opacity:1;stroke:#270011;stroke-width:1.05833;stroke-linecap:round;stroke-linejoin:round;stroke-miterlimit:4;stroke-dasharray:none;stroke-opacity:1" />
  </g>
  <g
     inkscape:label="player_right"
     id="layer4"
     inkscape:groupmode="layer">
    <path
       sodipodi:nodetypes="cccsssc"
       id="path1497"
       d="m 144.06879,255.83102 4.13782,8.36907 3.33151,-13.65461 c 0,0 38.49684,-17.79095 33.68232,-32.67365 -5.57726,-17.24048 -37.03416,-14.71279 -53.79429,-7.82528 -15.92773,6.54545 -37.990794,25.44376 -31.12135,41.23445 5.85077,13.4491 43.76399,4.55002 43.76399,4.55002 z"
       style="display:inline;mix-blend-mode:normal;fill:#ffffd7;fill-opacity:1;stroke:#270011;stroke-width:1.1443;stroke-linecap:butt;stroke-linejoin:miter;stroke-miterlimit:4;stroke-dasharray:none;stroke-opacity:1" />
    <text
       transform="rotate(-18.416104)"
       id="text1501"
       y="270.23096"
       x="40.152264"
       style="font-style:normal;font-weight:normal;font-size:20.3322px;line-height:1.25;font-family:sans-serif;display:inline;mix-blend-mode:normal;fill:#000000;fill-opacity:1;stroke:none;stroke-width:0.508305;stroke-opacity:1"
       xml:space="preserve"><tspan
         style="font-style:normal;font-variant:normal;font-weight:normal;font-stretch:normal;font-family:'PT Sans';-inkscape-font-specification:'PT Sans';stroke:none;stroke-width:0.508305;stroke-opacity:1"
         y="270.23096"
         x="40.152264"
         id="tspan1499"
         sodipodi:role="line">КИТ?</tspan></text>
    <path
       sodipodi:nodetypes="csccsc"
       id="path1509"
       d="m 102.10798,345.51659 c -6.676268,-48.11155 5.21084,-81.0679 14.81231,-83.0715 3.18024,-0.66366 10.24139,4.97346 17.55917,21.07131 0,0 8.36965,-5.57883 24.8068,-3.94668 3.43402,-14.65575 12.66633,-26.05163 17.15313,-24.34651 15.74759,5.98455 21.86288,76.36776 15.93841,93.19138"
       style="display:inline;mix-blend-mode:normal;fill:url(#linearGradient1552);fill-opacity:1;stroke:#270011;stroke-width:1.1443;stroke-linecap:butt;stroke-linejoin:miter;stroke-miterlimit:4;stroke-dasharray:none;stroke-opacity:1" />
    <path
       style="display:inline;mix-blend-mode:normal;fill:#d0764f;fill-opacity:1;stroke:#270011;stroke-width:1.05833;stroke-linecap:round;stroke-linejoin:round;stroke-miterlimit:4;stroke-dasharray:none;stroke-opacity:1"
       d="m 152.05545,280.82462 c 0,0 3.02001,-6.91733 0.58193,-8.07198 -2.20135,-1.04256 -5.30567,5.02466 -5.30567,5.02466 0,0 -1.89669,-5.34296 -3.84083,-4.74343 -1.9702,0.60755 -0.50912,6.1642 -0.50912,6.1642 0,0 -3.71341,-0.68468 -4.09157,0.64308 -0.64648,2.27023 5.36658,4.62027 5.36658,4.62027"
       id="path1616"
       sodipodi:nodetypes="cscscsc" />
  </g>
</svg>
