<?xml version="1.0" encoding="UTF-8" standalone="no"?>
<!-- Created with Inkscape (http://www.inkscape.org/) -->

<svg
   xmlns:dc="http://purl.org/dc/elements/1.1/"
   xmlns:cc="http://creativecommons.org/ns#"
   xmlns:rdf="http://www.w3.org/1999/02/22-rdf-syntax-ns#"
   xmlns:svg="http://www.w3.org/2000/svg"
   xmlns="http://www.w3.org/2000/svg"
   xmlns:sodipodi="http://sodipodi.sourceforge.net/DTD/sodipodi-0.dtd"
   xmlns:inkscape="http://www.inkscape.org/namespaces/inkscape"
   width="400mm"
   height="400mm"
   viewBox="0 0 1417.3228 1417.3228"
   id="svg2"
   version="1.1"
   inkscape:version="0.91 r13725"
   sodipodi:docname="tattoo_05.svg"
   inkscape:export-filename="/mnt/Data/YandexDisk/Art/Tattoo/2018-02/tattoo_05_300dpi.png"
   inkscape:export-xdpi="299.974"
   inkscape:export-ydpi="299.974">
  <defs
     id="defs4" />
  <sodipodi:namedview
     id="base"
     pagecolor="#ffffff"
     bordercolor="#666666"
     borderopacity="1.0"
     inkscape:pageopacity="1"
     inkscape:pageshadow="2"
     inkscape:zoom="0.54"
     inkscape:cx="582.66932"
     inkscape:cy="628.463"
     inkscape:document-units="px"
     inkscape:current-layer="layer4"
     showgrid="false"
     fit-margin-top="0"
     fit-margin-left="0"
     fit-margin-right="0"
     fit-margin-bottom="0"
     inkscape:window-width="1872"
     inkscape:window-height="1049"
     inkscape:window-x="48"
     inkscape:window-y="0"
     inkscape:window-maximized="1" />
  <metadata
     id="metadata7">
    <rdf:RDF>
      <cc:Work
         rdf:about="">
        <dc:format>image/svg+xml</dc:format>
        <dc:type
           rdf:resource="http://purl.org/dc/dcmitype/StillImage" />
        <dc:title></dc:title>
      </cc:Work>
    </rdf:RDF>
  </metadata>
  <g
     inkscape:groupmode="layer"
     id="layer2"
     inkscape:label="hand"
     style="display:inline" />
  <g
     inkscape:groupmode="layer"
     id="layer6"
     inkscape:label="background">
    <path
       style="color:#000000;font-style:normal;font-variant:normal;font-weight:normal;font-stretch:normal;font-size:medium;line-height:normal;font-family:sans-serif;text-indent:0;text-align:start;text-decoration:none;text-decoration-line:none;text-decoration-style:solid;text-decoration-color:#000000;letter-spacing:normal;word-spacing:normal;text-transform:none;direction:ltr;block-progression:tb;writing-mode:lr-tb;baseline-shift:baseline;text-anchor:start;white-space:normal;clip-rule:nonzero;display:inline;overflow:visible;visibility:visible;opacity:1;isolation:auto;mix-blend-mode:normal;color-interpolation:sRGB;color-interpolation-filters:linearRGB;solid-color:#000000;solid-opacity:1;fill:#000000;fill-opacity:1;fill-rule:evenodd;stroke:none;stroke-width:3.99999952;stroke-linecap:butt;stroke-linejoin:miter;stroke-miterlimit:4;stroke-dasharray:none;stroke-dashoffset:0;stroke-opacity:1;color-rendering:auto;image-rendering:auto;shape-rendering:auto;text-rendering:auto;enable-background:accumulate"
       d="m 1047.3945,908.08789 -206.08591,28.20703 -0.10351,4.05274 204.43552,-27.98243 74.0449,96.05667 3.168,-2.4414 z m -221.35739,30.29883 -77.74023,10.64062 -1.55469,4.24805 80.24219,-10.98242 z m -118.48242,16.2168 -23.96007,2.74132 -0.15624,4.05859 22.38584,-2.52648 z m -95.62696,13.08789 -32.58007,4.45898 -1.79688,4.2832 34.51172,-4.72461 z m -48.26562,6.60547 -22.38867,3.06445 -1.77539,4.28125 22.26562,-3.04688 z m -50.55469,6.91992 -188.43247,24.6841 0.54101,3.9629 186.75865,-24.4556 z"
       id="path4347"
       inkscape:connector-curvature="0"
       sodipodi:nodetypes="cccccccccccccccccccccccccccccccc" />
    <path
       style="fill:none;fill-rule:evenodd;stroke:#000000;stroke-width:3.99999952;stroke-linecap:butt;stroke-linejoin:miter;stroke-miterlimit:4;stroke-dasharray:none;stroke-opacity:1"
       d="m 268.83342,908.20508 c 0,0 119.15491,0.28583 279.74861,0.53515 l 0.34961,-0.53515 z m 311.58846,0 -0.42774,0.5625 c 2.48586,0.004 7.67188,0.01 7.67188,0.01 l 0.20703,-0.57226 z m 23.1875,0 -0.19727,0.5918 12.25977,0.0156 0.0391,-0.60742 z m 165.4121,0 -0.45898,0.78711 54.25586,0.0351 -0.0898,-0.82226 z m 71.57032,0 0.0625,0.83203 c 0,0 329.4587,1.8e-4 331.123,-0.83203 z"
       id="path4349"
       inkscape:connector-curvature="0"
       sodipodi:nodetypes="ccccccccccccccccccccccc" />
    <path
       style="fill:none;stroke:#000000;stroke-width:3.99999952;stroke-miterlimit:4;stroke-dasharray:none;stroke-opacity:1"
       d="m 1040.5377,777.46786 c -0.5033,0.002 -1.4075,0.0843 -2.0078,0.1836 -1.085,0.17945 -1.092,0.18968 -1.2188,1.87109 -0.283,3.75169 -2.9776,6.64804 -7.1875,7.72656 -2.0688,0.53001 -3.7106,0.38965 -6.0898,-0.51953 -2.4232,-0.92597 -4.6497,-3.36821 -5.1133,-5.61133 -0.1181,-0.57115 -0.354,-0.93948 -0.5527,-0.86328 -0.1906,0.0731 -1.0886,0.2989 -1.9961,0.50196 l -1.6504,0.36914 -0.01,2.44336 c 0,1.94697 -0.1408,2.70189 -0.6758,3.71093 -1.0722,2.02205 -2.2961,3.20605 -4.4336,4.29102 -1.7888,0.90794 -2.2467,1.01191 -4.4394,1.00391 -1.8746,-0.007 -2.8115,-0.1701 -4.0137,-0.69532 -1.71141,-0.74771 -3.84851,-2.83017 -4.15431,-4.04882 -0.106,-0.42227 -0.3088,-0.76758 -0.4512,-0.76758 -0.2522,0 -3.6039,1.42619 -3.791,1.61328 -0.052,0.0516 0.1116,0.58411 0.3613,1.18164 1.5224,3.64375 -0.9836,9.02716 -5.1132,10.98828 -1.7481,0.83012 -5.0814,1.14635 -6.9004,0.6543 -1.5721,-0.42522 -3.7238,-1.86862 -4.4668,-2.9961 l -0.584,-0.88476 -1.666,1.05859 c -0.9166,0.58195 -1.7097,1.09453 -1.7617,1.14063 -0.052,0.0461 0.2652,0.79409 0.705,1.66211 0.7056,1.39303 0.7847,1.84595 0.6778,3.85546 -0.1993,3.74492 -2.0267,6.56517 -5.4024,8.33789 -1.3908,0.73038 -1.9164,0.83494 -4.2851,0.83594 -2.9237,0.002 -3.7637,-0.288 -5.6446,-1.93945 l -1.0039,-0.88086 -1.4492,1.4707 -1.44725,1.47071 0.84965,1.11328 c 1.1694,1.53313 1.6178,2.94213 1.6328,5.13281 0.026,3.71523 -2.07593,7.10005 -5.49808,8.85742 -1.57517,0.8089 -2.16413,0.94613 -4.08984,0.95313 -2.17655,0.007 -2.88417,-0.19278 -4.74609,-1.34375 -0.64701,-0.39995 -0.74693,-0.36801 -1.43946,0.46875 -0.40969,0.495 -0.94398,1.2719 -1.1875,1.72656 -0.4268,0.79683 -0.40527,0.86036 0.60352,1.74609 0.57559,0.50537 1.40453,1.65304 1.84375,2.55078 0.72476,1.48127 0.78656,1.87424 0.66602,4.25391 -0.0978,1.93001 -0.30811,2.96374 -0.79883,3.91211 -1.71513,3.31465 -4.99609,5.46094 -8.34766,5.46094 -1.05144,0 -2.39788,-0.20367 -2.99023,-0.45117 -0.59235,-0.2475 -1.13373,-0.44922 -1.20313,-0.44922 -0.0694,0 -0.52336,0.8426 -1.00976,1.87109 l -0.88477,1.86914 1.00195,0.51367 c 0.5511,0.28272 1.44662,1.02148 1.99024,1.64063 3.38604,3.85649 2.92031,9.93096 -1.03906,13.54297 -2.09489,1.91111 -4.0738,2.60292 -6.73633,2.35547 l -2.01953,-0.1875 -0.33008,1.42187 c -0.18142,0.7823 -0.4204,1.6569 -0.53125,1.94336 -0.15105,0.39033 0.0112,0.59863 0.65234,0.82812 3.57679,1.28033 5.63935,3.97185 6,7.83399 0.50233,5.37935 -3.57111,10.43598 -8.5293,10.58594 l -1.71484,0.0508 -0.0879,2.16601 -0.0879,2.16407 0.98828,0.008 c 3.51598,0.0234 7.00552,4.07922 7.36524,8.56055 0.0746,0.92966 0.003,1.84876 -0.1836,2.73242 l 21.62305,0 c 0.34941,-1.28062 0.75903,-2.50297 1.24805,-3.60352 2.07943,-4.67989 6.22474,-9.1496 10.4336,-11.24805 l 2.3652,-1.17968 2.168,0.68164 c 1.1928,0.37419 4.868,1.56247 8.168,2.64062 3.3,1.07815 11.0625,3.59902 17.25,5.60352 6.1875,2.00449 13.29071,4.31675 15.78321,5.13672 l 4.5312,1.49023 0.041,0.47852 17.8652,0 c -0.2947,-2.96587 -0.01,-6.02539 0.8984,-8.41016 2.1842,-5.76124 6.2686,-9.77204 12.0313,-11.8125 2.8503,-1.00923 7.5749,-1.2546 10.3496,-0.53711 7.5156,1.94338 12.6592,7.06366 14.4023,14.33399 0.5501,2.29483 0.694,4.29193 0.4395,6.42578 l 17.9336,0 c 0.03,-0.13921 0.081,-0.44785 0.094,-0.46094 0.1378,-0.14606 2.2283,-0.84041 13.6309,-4.51758 5.1975,-1.67612 10.194,-3.29789 11.1015,-3.60547 7.7784,-2.63631 22.2419,-7.21484 22.7911,-7.21484 1.0753,0 4.1728,1.66602 6.2871,3.38281 3.4986,2.84094 6.3435,7.29538 7.9726,12.41602 l 29.8535,0 0,-1.92578 0,-2.17383 -1.2753,-0.004 c -2.8942,-0.007 -6.194,-2.62775 -7.4141,-5.88867 -1.2031,-3.21554 -0.5778,-7.25689 1.5156,-9.79492 1.0686,-1.29544 3.6815,-2.90616 4.7227,-2.91016 0.6611,-0.003 0.6897,-0.0811 0.5097,-1.42773 -0.3852,-2.88013 -0.289,-2.77435 -2.5156,-2.77735 -3.5499,-0.005 -6.3387,-1.84405 -8.0351,-5.29882 -0.7415,-1.51012 -0.8555,-2.09663 -0.8555,-4.29883 0,-1.95008 0.152,-2.87197 0.6328,-3.91602 0.8703,-1.88952 2.2936,-3.42327 3.8965,-4.19922 0.7454,-0.36083 1.3004,-0.80946 1.2344,-0.99609 -0.066,-0.18663 -0.3738,-1.05559 -0.6836,-1.93164 -0.4832,-1.36604 -0.6513,-1.56591 -1.1739,-1.39844 -0.3351,0.10741 -1.3723,0.26742 -2.3047,0.35352 -3.6149,0.33357 -6.9552,-1.69963 -8.7753,-5.33789 -0.9565,-1.91177 -1.0762,-2.41348 -1.0762,-4.43946 0,-3.33485 1.4594,-6.26978 3.6816,-7.42578 l 0.834,-0.43359 -0.6836,-1.13867 c -0.3765,-0.62589 -0.8872,-1.43299 -1.1347,-1.79297 l -0.4493,-0.6543 -1.3007,0.64844 c -2.0398,1.01801 -4.9095,0.90924 -7.3184,-0.27735 -1.0346,-0.5096 -2.3069,-1.37204 -2.8262,-1.91796 -3.4224,-3.59814 -3.7541,-9.77118 -0.6836,-12.71289 0.483,-0.46278 0.8789,-0.96072 0.8789,-1.10547 0,-0.14476 -0.5619,-0.91443 -1.248,-1.71094 l -1.2481,-1.44922 -1.1386,0.82617 c -3.9262,2.84418 -9.9898,1.50587 -13.0723,-2.88281 -2.1263,-3.02658 -2.1046,-7.49248 0.051,-10.4668 0.4145,-0.57204 0.3411,-0.68849 -1.2031,-1.89453 l -1.6465,-1.28516 -1.0059,1.06836 c -2.3821,2.52574 -6.7775,3.18923 -10.2051,1.53907 -0.9715,-0.46769 -2.3029,-1.38692 -2.957,-2.04102 -2.372,-2.37202 -3.4622,-6.28955 -2.4863,-8.92773 0.2747,-0.7425 0.5645,-1.55694 0.6465,-1.81055 0.1059,-0.32922 -0.3791,-0.71264 -1.6954,-1.3418 -1.7578,-0.84012 -1.8583,-0.85658 -2.1562,-0.32422 -0.739,1.32041 -2.4546,2.85482 -3.9141,3.5 -1.2155,0.53732 -2.1174,0.69637 -3.9726,0.69727 -2.1049,10e-4 -2.6242,-0.11648 -4.2344,-0.94531 -4.2096,-2.16693 -6.3481,-6.69643 -5.0703,-10.74024 0.1693,-0.53592 -0.029,-0.68273 -1.5508,-1.16211 -0.9593,-0.30217 -1.8992,-0.60874 -2.0898,-0.68164 -0.1934,-0.074 -0.4341,0.26681 -0.545,0.77149 -0.3575,1.62781 -2.0985,3.52132 -4.1777,4.54492 -1.6592,0.81682 -2.2461,0.94608 -4.3184,0.95508 -1.9295,0.008 -2.7157,-0.13357 -4.0195,-0.73047 -3.5392,-1.62033 -5.3547,-4.09519 -5.5801,-7.60742 -0.1418,-2.20931 -0.1433,-2.21168 -1.0781,-2.35157 -3.1719,-0.47472 -3.1875,-0.47446 -3.1875,0.22071 -0.01,1.25916 -1.405,3.66765 -2.9238,5.0332 -2.3794,2.1393 -5.9821,2.93604 -9.2129,2.03906 -3.2756,-0.90939 -5.8416,-3.6343 -6.5215,-6.92578 -0.3434,-1.66279 -0.3993,-1.73933 -1.2734,-1.73633 z m -26.0996,35.58203 c 6.7558,0.1284 12.8341,2.66771 17.0683,7.35547 2.8272,3.13005 2.5596,0.29934 2.5606,27.14649 l 0,23.74023 -1.875,0.69141 c -4.9971,1.84652 -11.0088,6.03513 -14.4649,10.07617 l 0,0 c -0.9954,1.1638 -2.1481,2.52599 -2.5606,3.0293 l -0.75,0.91601 -4.9492,-1.6289 c -2.7225,-0.89635 -8.9333,-2.91959 -13.80081,-4.49414 -24.3364,-7.87237 -22.9627,-7.37331 -24.5429,-8.91016 -1.698,-1.65137 -3.6565,-4.66882 -4.6387,-7.14844 -1.1519,-2.90812 -1.5171,-5.52148 -1.3516,-9.67968 0.1227,-3.08556 0.2913,-4.05554 1.125,-6.47852 1.2448,-3.61762 2.0703,-5.26079 4.1465,-8.25 2.7984,-4.02892 7.2427,-8.26268 14.0117,-13.3457 8.2415,-6.18888 15.0142,-10.04529 20.49611,-11.67383 3.2413,-0.96291 6.4526,-1.40407 9.5235,-1.34571 z m 62.2617,0.0176 c 4.7061,-0.0163 9.6746,1.05899 14.1094,3.1875 5.408,2.59558 12.2448,7.07243 18.7461,12.27539 8.3672,6.69616 12.5463,11.98301 14.8418,18.77344 2.9782,8.8108 1.2428,17.42615 -4.8028,23.8457 -1.0036,1.06568 -1.6397,1.31874 -10.373,4.13672 -5.1173,1.65117 -10.0457,3.25443 -10.9532,3.5625 -0.9075,0.30808 -6.1057,1.999 -11.5507,3.75586 -5.445,1.75685 -10.0465,3.24083 -10.2266,3.29883 -0.1801,0.058 -0.8954,-0.67541 -1.5898,-1.62891 -1.2982,-1.78281 -5.296,-5.7815 -7.334,-7.33789 -2.5637,-1.95781 -6.0057,-3.85943 -9.0489,-4.99804 l -1.6503,-0.61719 0,-23.83399 0,-23.83593 0.7187,-1.11719 c 1.6903,-2.63391 5.6638,-5.92167 8.9805,-7.42969 2.9708,-1.35076 6.4725,-2.02438 10.1328,-2.03711 z"
       id="path4365"
       inkscape:connector-curvature="0"
       sodipodi:nodetypes="cccssccccccccccscccccccsccscccccccscscssccsssscccsscccccsccccccccscccsscccccssccccsssccccccsccccssccsccccscccccccccscccccccccsccccsccccccscssccssccccsccccccccscsccssscccsscssssscscccccsc" />
    <path
       style="fill:none;fill-rule:evenodd;stroke:#000000;stroke-width:3.99999952;stroke-linecap:butt;stroke-linejoin:miter;stroke-opacity:1;stroke-miterlimit:4;stroke-dasharray:none"
       d="m 680.46392,908.33211 42.17386,0"
       id="path4489"
       inkscape:connector-curvature="0" />
  </g>
  <g
     inkscape:groupmode="layer"
     id="layer8"
     inkscape:label="bicycle__fill">
    <path
       style="color:#000000;font-style:normal;font-variant:normal;font-weight:normal;font-stretch:normal;font-size:medium;line-height:normal;font-family:sans-serif;text-indent:0;text-align:start;text-decoration:none;text-decoration-line:none;text-decoration-style:solid;text-decoration-color:#000000;letter-spacing:normal;word-spacing:normal;text-transform:none;direction:ltr;block-progression:tb;writing-mode:lr-tb;baseline-shift:baseline;text-anchor:start;white-space:normal;clip-rule:nonzero;display:inline;overflow:visible;visibility:visible;opacity:1;isolation:auto;mix-blend-mode:normal;color-interpolation:sRGB;color-interpolation-filters:linearRGB;solid-color:#000000;solid-opacity:1;fill:#000000;fill-opacity:1;fill-rule:nonzero;stroke:none;stroke-width:3.99999952;stroke-linecap:round;stroke-linejoin:round;stroke-miterlimit:4;stroke-dasharray:none;stroke-dashoffset:19.49999809;stroke-opacity:1;color-rendering:auto;image-rendering:auto;shape-rendering:auto;text-rendering:auto;enable-background:accumulate"
       d="M 683.8125 1002.8379 C 673.85746 1003.1637 664.67091 1009.908 657.27148 1019.8203 C 649.37877 1030.3933 643.35693 1044.7378 640.4082 1059.8457 A 2.0002 2.0002 0 0 0 640.39062 1059.957 C 638.59299 1073.0519 639.79667 1084.5605 643.01953 1093.0488 C 646.23923 1101.5287 651.67071 1107.2885 658.42969 1107.6133 C 666.52413 1108.1067 674.60341 1104.0678 681.77734 1095.457 C 688.95415 1086.8427 695.41326 1073.6291 700.76562 1055.1543 A 2.0002 2.0002 0 0 0 700.80859 1054.9824 C 701.67961 1050.5222 702.28788 1046.2531 702.66406 1042.1758 L 697.50977 1056.5723 L 696.92578 1053.9707 C 696.91592 1054.0217 696.90836 1054.0701 696.89844 1054.1211 C 691.64941 1072.2105 685.33393 1084.9399 678.70508 1092.8965 C 672.06571 1100.8656 665.3011 1104.0287 658.66406 1103.6211 A 2.0002 2.0002 0 0 0 658.63477 1103.6211 C 654.0775 1103.4094 649.67053 1099.2971 646.75977 1091.6309 C 643.85292 1083.9749 642.63858 1073.068 644.34961 1060.5508 C 647.19723 1046.0079 653.0526 1032.1619 660.47656 1022.2168 C 667.86041 1012.3254 676.63489 1006.4721 685.41602 1006.8613 L 685.41602 1006.8594 C 687.64672 1007.3434 689.57035 1008.2528 691.22266 1009.5586 L 692.4043 1005.543 C 690.55061 1004.298 688.46028 1003.388 686.11328 1002.8984 A 2.0002 2.0002 0 0 0 685.8125 1002.8594 C 685.14229 1002.8231 684.47617 1002.8162 683.8125 1002.8379 z "
       id="path4240-3" />
    <path
       style="fill:#ffffff;fill-rule:evenodd;stroke:none;stroke-width:1px;stroke-linecap:butt;stroke-linejoin:miter;stroke-opacity:1;fill-opacity:1"
       d="M 735.71484 864.4668 L 692.14258 1005.1797 L 696.88281 1045.7109 L 755.35742 868.39453 L 735.71484 864.4668 z M 678.31836 894.06445 L 658.11523 899.11523 L 670.23633 1026.6465 L 691.19727 1043.3145 L 678.31836 894.06445 z "
       id="path4314" />
    <path
       style="fill:#ffffff;fill-rule:evenodd;stroke:none;stroke-width:1px;stroke-linecap:butt;stroke-linejoin:miter;stroke-opacity:1;fill-opacity:1"
       d="m 685.89277,1074.287 10,4.2857 7.14286,-8.0357 1.25,-6.6071 -2.14286,-5.7143 -5.35714,-2.5 -5.71428,5 z"
       id="path4318"
       inkscape:connector-curvature="0" />
  </g>
  <g
     inkscape:groupmode="layer"
     id="layer3"
     inkscape:label="bicycle"
     style="display:inline"
     transform="translate(0,309.82285)">
    <path
       style="color:#000000;font-style:normal;font-variant:normal;font-weight:normal;font-stretch:normal;font-size:medium;line-height:normal;font-family:sans-serif;text-indent:0;text-align:start;text-decoration:none;text-decoration-line:none;text-decoration-style:solid;text-decoration-color:#000000;letter-spacing:normal;word-spacing:normal;text-transform:none;direction:ltr;block-progression:tb;writing-mode:lr-tb;baseline-shift:baseline;text-anchor:start;white-space:normal;clip-rule:nonzero;display:inline;overflow:visible;visibility:visible;opacity:1;isolation:auto;mix-blend-mode:normal;color-interpolation:sRGB;color-interpolation-filters:linearRGB;solid-color:#000000;solid-opacity:1;fill:#000000;fill-opacity:1;fill-rule:evenodd;stroke:none;stroke-width:3.99999952;stroke-linecap:butt;stroke-linejoin:miter;stroke-miterlimit:4;stroke-dasharray:none;stroke-dashoffset:0;stroke-opacity:1;color-rendering:auto;image-rendering:auto;shape-rendering:auto;text-rendering:auto;enable-background:accumulate"
       d="M 614.41602 875.13086 C 604.06813 875.07537 593.71033 880.38398 583.83789 889.29492 C 571.80292 900.15776 560.23932 916.46343 549.54883 935.86133 C 528.16784 974.65714 510.33843 1025.8389 500.59766 1070.4121 C 494.77985 1097.0341 489.14902 1136.3836 490.07227 1169.8711 C 490.53389 1186.6148 492.61101 1201.8899 497.27539 1213.4941 C 501.93977 1225.0984 509.5097 1233.224 520.51172 1234.4512 C 532.97966 1235.8419 545.4707 1228.6875 557.39648 1216.5859 C 569.32228 1204.4843 580.8397 1187.2743 591.42383 1167.6777 C 612.59209 1128.4845 629.97826 1079.7597 638.3457 1043.5098 C 644.59955 1016.4165 650.30529 977.36316 649.63086 943.70898 C 649.52199 938.27656 649.22702 933.00838 648.75977 927.92773 L 645.46094 938.62891 C 645.53175 940.33497 645.59598 942.04861 645.63086 943.78906 C 646.29495 976.92722 640.63113 1015.8213 634.44727 1042.6113 C 626.17664 1078.4417 608.84822 1126.9975 587.9043 1165.7754 C 577.43233 1185.1643 566.04488 1202.1118 554.54883 1213.7773 C 543.05277 1225.4429 531.6062 1231.6646 520.95508 1230.4766 C 511.65045 1229.4387 505.34724 1222.8512 500.98633 1212.002 C 496.62542 1201.1527 494.52454 1186.2353 494.07031 1169.7598 C 493.16186 1136.8087 498.74714 1097.6103 504.50391 1071.2676 C 514.1634 1027.0663 531.93469 976.10812 553.05078 937.79297 C 563.60883 918.6354 575.01858 902.64275 586.51758 892.26367 C 596.57921 883.18197 606.51976 878.46939 616.1582 879.19727 C 617.53512 879.30125 618.90546 879.51648 620.26953 879.8457 C 629.03585 881.9614 635.13842 889.35468 639.25391 900.7207 C 639.34232 900.96487 639.42337 901.22113 639.50977 901.46875 L 641.45312 895.4668 C 637.04313 885.42716 630.47923 878.19482 621.20703 875.95703 C 619.63441 875.57748 618.06068 875.33155 616.48438 875.21289 C 615.79474 875.16098 615.10587 875.13456 614.41602 875.13086 z "
       transform="translate(0,-309.82285)"
       id="path4149" />
    <path
       style="color:#000000;font-style:normal;font-variant:normal;font-weight:normal;font-stretch:normal;font-size:medium;line-height:normal;font-family:sans-serif;text-indent:0;text-align:start;text-decoration:none;text-decoration-line:none;text-decoration-style:solid;text-decoration-color:#000000;letter-spacing:normal;word-spacing:normal;text-transform:none;direction:ltr;block-progression:tb;writing-mode:lr-tb;baseline-shift:baseline;text-anchor:start;white-space:normal;clip-rule:nonzero;display:inline;overflow:visible;visibility:visible;opacity:1;isolation:auto;mix-blend-mode:normal;color-interpolation:sRGB;color-interpolation-filters:linearRGB;solid-color:#000000;solid-opacity:1;fill:#000000;fill-opacity:1;fill-rule:evenodd;stroke:none;stroke-width:3.99999952;stroke-linecap:butt;stroke-linejoin:miter;stroke-miterlimit:4;stroke-dasharray:none;stroke-dashoffset:0;stroke-opacity:1;color-rendering:auto;image-rendering:auto;shape-rendering:auto;text-rendering:auto;enable-background:accumulate"
       d="M 615.86914 856.63477 C 606.38131 856.58027 596.61039 859.75193 586.92578 865.89844 C 574.01297 874.09379 561.15123 887.55074 548.7832 905.93945 C 524.04715 942.71687 501.27952 999.28417 484.93945 1073.4395 C 478.73423 1101.6003 473.99153 1142.609 476.3457 1178.1348 C 477.52279 1195.8977 480.46132 1212.2877 486.00781 1225.0879 C 491.5543 1237.8881 499.88567 1247.2366 511.68164 1250.0664 C 523.73628 1252.9582 536.60888 1248.7185 549.33008 1239.1328 C 562.05128 1229.5471 574.78799 1214.571 586.96289 1195.4004 C 611.31268 1157.0592 633.38568 1101.9013 647.43945 1039.459 C 656.07482 1001.0912 660.525 958.45524 657.97656 924.04492 C 657.48995 917.47437 656.74896 911.20697 655.72852 905.31836 L 652.97461 914.25 C 653.37951 917.52331 653.72947 920.87364 653.98633 924.3418 C 656.49129 958.16519 652.09742 1000.5458 643.53711 1038.5801 C 629.56972 1100.6386 607.59059 1155.4582 583.58594 1193.2559 C 571.58361 1212.1547 559.06697 1226.7893 546.92383 1235.9395 C 534.78069 1245.0896 523.1793 1248.7124 512.61328 1246.1777 C 502.33485 1243.712 494.9313 1235.6222 489.67773 1223.498 C 484.42417 1211.3739 481.49646 1195.3526 480.33789 1177.8691 C 478.02075 1142.9022 482.72445 1102.0805 488.8457 1074.3008 C 505.10956 1000.4914 527.79246 944.3145 552.10156 908.17188 C 564.25612 890.10056 576.8169 877.051 589.06836 869.27539 C 598.25695 863.44369 607.21407 860.56369 615.82227 860.62305 C 618.69166 860.64285 621.52308 860.98937 624.31055 861.66211 C 633.16254 863.7985 639.87521 870.78317 644.80859 881.72266 C 645.02152 882.19481 645.22593 882.68364 645.43164 883.16992 L 647.24805 877.5625 C 642.07061 867.29191 634.82871 860.08568 625.24805 857.77344 C 622.16213 857.02867 619.03175 856.65294 615.86914 856.63477 z "
       transform="translate(0,-309.82285)"
       id="path4154" />
    <path
       style="color:#000000;font-style:normal;font-variant:normal;font-weight:normal;font-stretch:normal;font-size:medium;line-height:normal;font-family:sans-serif;text-indent:0;text-align:start;text-decoration:none;text-decoration-line:none;text-decoration-style:solid;text-decoration-color:#000000;letter-spacing:normal;word-spacing:normal;text-transform:none;direction:ltr;block-progression:tb;writing-mode:lr-tb;baseline-shift:baseline;text-anchor:start;white-space:normal;clip-rule:nonzero;display:inline;overflow:visible;visibility:visible;opacity:1;isolation:auto;mix-blend-mode:normal;color-interpolation:sRGB;color-interpolation-filters:linearRGB;solid-color:#000000;solid-opacity:1;fill:#000000;fill-opacity:1;fill-rule:evenodd;stroke:none;stroke-width:3.99999952;stroke-linecap:butt;stroke-linejoin:miter;stroke-miterlimit:4;stroke-dasharray:none;stroke-dashoffset:0;stroke-opacity:1;color-rendering:auto;image-rendering:auto;shape-rendering:auto;text-rendering:auto;enable-background:accumulate"
       d="M 611.08594 884.92383 C 601.78684 885.26117 592.40888 891.37001 583.40234 900.93555 C 572.42296 912.59639 561.70105 929.63459 551.76172 949.13672 C 531.88306 988.14098 515.20659 1036.9739 507.16797 1071.9062 C 501.56032 1096.2747 496.93766 1131.9363 497.41602 1162.4746 C 497.65519 1177.7438 499.15363 1191.7201 502.55078 1202.4668 C 505.94794 1213.2135 511.42187 1221.0658 519.82227 1222.8066 C 531.0891 1225.1416 542.19506 1218.6593 552.53125 1207.3145 C 562.86744 1195.9696 572.71707 1179.5495 581.79297 1160.8281 C 599.94476 1123.3854 614.9298 1076.7405 623.18555 1043.543 C 628.04163 1024.016 632.85815 997.47168 635.26562 971.71484 L 628.76562 992.80273 C 626.21013 1011.0871 622.75932 1028.6787 619.30273 1042.5781 C 611.10905 1075.5261 596.15267 1122.0383 578.19336 1159.084 C 569.2137 1177.6068 559.46473 1193.7634 549.57422 1204.6191 C 539.68371 1215.4748 529.93626 1220.8163 520.63477 1218.8887 C 514.25701 1217.567 509.56168 1211.3735 506.36523 1201.2617 C 503.16879 1191.1499 501.64968 1177.454 501.41406 1162.4121 C 500.94283 1132.3284 505.54281 1096.8059 511.06641 1072.8027 C 519.01618 1038.2565 535.65057 989.55898 555.32617 950.95312 C 565.16397 931.65019 575.78082 914.86517 586.31445 903.67773 C 595.53139 893.88873 604.45794 888.57066 612.7168 888.93164 C 613.89663 888.98324 615.06339 889.15065 616.21484 889.4375 C 619.37717 890.2253 621.98142 892.19019 624.23438 895.37891 C 626.48732 898.56763 628.31109 902.97243 629.66406 908.3125 C 630.84085 912.95718 631.64563 918.33155 632.16016 924.17969 L 635.10742 915.07422 C 634.67427 912.35566 634.15712 909.76179 633.54102 907.33008 C 632.10823 901.67499 630.16274 896.83627 627.50195 893.07031 C 624.84116 889.30434 621.38732 886.60435 617.18164 885.55664 C 615.77328 885.20578 614.36039 885.00102 612.94531 884.93359 C 612.32621 884.90409 611.70588 884.90134 611.08594 884.92383 z "
       transform="translate(0,-309.82285)"
       id="path4157" />
    <path
       style="opacity:1;fill:none;fill-opacity:1;fill-rule:evenodd;stroke:#000000;stroke-width:3.99999952;stroke-linecap:butt;stroke-linejoin:miter;stroke-miterlimit:4;stroke-dasharray:none;stroke-opacity:1"
       d="m 722.52907,715.68397 c 12.83116,-55.75867 53.4679,-156.5424 86.33717,-148.354 23.65218,5.89223 13.69545,84.44238 3.64805,124.84435 -13.20116,53.0837 -48.05437,149.52087 -81.06776,142.67926 -23.71979,-4.91563 -17.85062,-80.34994 -8.91746,-119.16961 z"
       id="path4182"
       inkscape:connector-curvature="0"
       sodipodi:nodetypes="asasa" />
    <path
       sodipodi:nodetypes="ssass"
       inkscape:connector-curvature="0"
       id="path4178"
       d="m 717.25967,714.46797 c 15.5693,-71.24425 57.14074,-163.94021 94.84928,-154.83944 30.81582,7.43725 22.54714,89.30283 12.5655,132.54579 -13.35254,57.84658 -55.71509,156.14104 -92.82258,152.00205 -32.59338,-3.63547 -23.88115,-87.20267 -14.5922,-129.7084 z"
       style="opacity:1;fill:none;fill-opacity:1;fill-rule:evenodd;stroke:#000000;stroke-width:3.99999952;stroke-linecap:butt;stroke-linejoin:miter;stroke-miterlimit:4;stroke-dasharray:none;stroke-opacity:1" />
    <path
       style="color:#000000;font-style:normal;font-variant:normal;font-weight:normal;font-stretch:normal;font-size:medium;line-height:normal;font-family:sans-serif;text-indent:0;text-align:start;text-decoration:none;text-decoration-line:none;text-decoration-style:solid;text-decoration-color:#000000;letter-spacing:normal;word-spacing:normal;text-transform:none;direction:ltr;block-progression:tb;writing-mode:lr-tb;baseline-shift:baseline;text-anchor:start;white-space:normal;clip-rule:nonzero;display:inline;overflow:visible;visibility:visible;opacity:1;isolation:auto;mix-blend-mode:normal;color-interpolation:sRGB;color-interpolation-filters:linearRGB;solid-color:#000000;solid-opacity:1;fill:#000000;fill-opacity:1;fill-rule:evenodd;stroke:none;stroke-width:3.99999952;stroke-linecap:butt;stroke-linejoin:miter;stroke-miterlimit:4;stroke-dasharray:none;stroke-dashoffset:0;stroke-opacity:1;color-rendering:auto;image-rendering:auto;shape-rendering:auto;text-rendering:auto;enable-background:accumulate"
       d="m 808.19336,542.16153 c -12.82735,-0.0807 -26.06992,7.06522 -38.875,20.46289 -12.80508,13.39766 -25.26736,33.12829 -36.61328,58.76757 l -0.0508,0.10938 c -6.90748,33.09437 -26.18392,72.42497 -31.25196,101.49608 -4.51102,23.2823 -7.58405,54.6995 -5.26562,81.5332 1.15921,13.4169 3.6522,25.6902 8.11719,35.2969 4.46499,9.6067 11.06665,16.6587 20.24023,18.8594 9.8212,2.356 20.27867,-1.1079 30.54492,-8.8438 10.26625,-7.7358 20.50908,-19.7874 30.29688,-35.1992 19.57559,-30.8237 37.29884,-75.1237 48.58594,-125.27344 6.93755,-30.82423 10.51439,-65.06522 8.46484,-92.73828 -1.02478,-13.83653 -3.44182,-26.03584 -7.67383,-35.41992 -4.232,-9.38408 -10.44103,-16.07941 -18.89258,-18.11914 -2.50566,-0.60474 -5.05453,-0.91547 -7.62695,-0.93164 z m -0.0234,4 c 2.26844,0.0143 4.505,0.28549 6.71289,0.81835 6.95637,1.67889 12.25427,7.16404 16.1836,15.87696 3.92932,8.71292 6.32899,20.52724 7.33203,34.07031 2.00608,27.08614 -1.51641,61.0737 -8.37891,91.56445 -11.20071,49.76595 -28.83009,93.72765 -48.06055,124.00785 -9.61522,15.1401 -19.63798,26.8501 -29.32617,34.1504 -9.68819,7.3002 -18.87251,10.1453 -27.20508,8.1464 -7.72635,-1.8535 -13.3942,-7.7195 -17.54687,-16.6543 -4.15268,-8.9347 -6.62525,-20.826 -7.75977,-33.957 -2.18597,-25.3006 0.58619,-55.0306 4.76563,-77.709 L 736.4082,622.91348 c 11.20184,-25.29113 23.47387,-44.62802 35.80078,-57.52539 12.3435,-12.91472 24.64562,-19.29776 35.96094,-19.22656 z"
       id="path4180"
       inkscape:connector-curvature="0"
       sodipodi:nodetypes="cscccssssssssscccsssssssssccscc" />
    <path
       style="fill:#ffffff;fill-rule:evenodd;stroke:none;stroke-width:1px;stroke-linecap:butt;stroke-linejoin:miter;stroke-opacity:1;fill-opacity:1"
       d="m 684.28571,763.57145 10.35714,4.1071 6.96429,-19.4643 -12.14286,-5.7143 z"
       id="path4325"
       inkscape:connector-curvature="0" />
    <path
       style="display:inline;opacity:1;fill:none;fill-opacity:1;fill-rule:evenodd;stroke:#000000;stroke-width:3.99999952;stroke-linecap:round;stroke-linejoin:round;stroke-miterlimit:4;stroke-dasharray:none;stroke-opacity:1"
       d="m 671.75146,736.26896 c -7.57614,1.6415 -11.61676,11.74303 -9.47019,18.43529 l 32.53038,13.25191 c 7.07787,-0.009 11.60452,-15.02787 6.69226,-19.38229 l -3.72494,-1.76773"
       id="path4411"
       inkscape:connector-curvature="0"
       sodipodi:nodetypes="ccccc" />
    <path
       style="display:inline;fill:#f8d5c2;fill-rule:evenodd;stroke:none;stroke-width:1px;stroke-linecap:butt;stroke-linejoin:miter;stroke-opacity:1;fill-opacity:1"
       d="m 695.7142,1067.8585 2.5,-5.3572 2.5,-1.25 9.10715,1.9643 4.46427,-2.8571 3.39286,-9.1072 27.32143,-62.85715 7.67857,7.32142 -34.46429,79.28573 -2.32143,2.8572 -7.67856,1.7857 -8.92857,-3.3929 -4.10714,-2.1428 z"
       id="path4322"
       inkscape:connector-curvature="0"
       transform="translate(0,-309.82285)" />
    <path
       style="fill:none;fill-opacity:1;fill-rule:evenodd;stroke:#000000;stroke-width:3.99999952;stroke-linecap:butt;stroke-linejoin:miter;stroke-miterlimit:4;stroke-dasharray:none;stroke-opacity:1"
       d="m 598.05329,753.82002 c 6.92072,1.67617 11.63691,5.26785 15.08929,8.30356"
       id="path4430"
       inkscape:connector-curvature="0"
       sodipodi:nodetypes="cc" />
    <path
       style="fill:none;fill-opacity:1;fill-rule:evenodd;stroke:#000000;stroke-width:3.99999952;stroke-linecap:round;stroke-linejoin:round;stroke-miterlimit:4;stroke-dasharray:none;stroke-opacity:1"
       d="m 605.64257,746.94502 c 3.125,0.26786 10.53572,4.19638 10.53572,4.19638"
       id="path4432"
       inkscape:connector-curvature="0"
       sodipodi:nodetypes="cc" />
    <g
       id="g4378"
       transform="matrix(0.13027755,0,0,0.13027755,567.10635,74.434602)">
      <g
         id="g4380"
         transform="matrix(0.1,0,0,-0.1,0,511)">
        <path
           id="path4382"
           d="m 658.2,1772.1 c -261,-17.9 -416.4,-57.8 -494.2,-125.5 -53.8,-45.8 -55.8,-55.8 -61.8,-263 -10,-267 10,-338.7 117.6,-426.4 45.8,-35.9 99.6,-103.6 121.5,-151.4 19.9,-47.8 73.7,-273 115.6,-500.1 161.4,-847 298.9,-1215.7 558,-1480.7 271,-279 599.8,-372.6 1396.8,-392.5 609.7,-15.9 898.6,21.9 1241.4,165.4 261,109.6 512.1,320.8 637.6,536 71.7,121.5 195.3,500.1 304.9,934.5 101.6,406.5 123.5,464.3 201.2,484.2 71.7,19.9 338.7,19.9 406.5,0 75.7,-19.9 101.6,-79.7 195.3,-464.3 101.6,-410.5 237.1,-830.9 310.8,-954.5 125.5,-215.2 376.6,-426.4 635.6,-534 304.9,-127.5 585.8,-173.3 1056.1,-173.3 962.4,0 1400.8,131.5 1675.7,502.1 207.2,277 332.8,653.6 474.2,1414.7 79.7,428.4 115.6,522.1 229.1,613.7 107.6,87.7 127.5,159.4 117.6,426.4 -6,207.2 -8,217.2 -61.8,263 -81.7,69.7 -229.1,105.6 -542,127.5 -372.6,25.9 -2982.9,25.9 -3233.9,0 -241.1,-25.9 -424.4,-79.7 -629.7,-185.3 -149.4,-75.7 -173.4,-81.7 -364.6,-89.7 -239.1,-10 -330.8,8 -551.9,115.6 C 4326.5,1706.2 4183,1746 3934,1773.9 3720.8,1798 996.9,1796 658.2,1772.1 Z m 3417.2,-322.8 c 77.7,-15.9 213.2,-65.8 300.9,-109.6 243.1,-123.5 358.7,-151.4 623.7,-151.4 265,0 380.6,27.9 623.7,151.4 277,139.5 286.9,139.5 1723.6,149.4 1277.2,10 2116.1,-12 2195.8,-53.8 31.9,-17.9 39.9,-41.8 39.9,-135.5 0,-103.6 -6,-119.6 -55.8,-157.4 -73.7,-53.8 -173.4,-245.1 -211.2,-404.5 -15.9,-71.7 -53.8,-263 -83.7,-428.4 -107.6,-607.7 -269,-1060 -446.3,-1253.3 -103.6,-111.6 -312.8,-219.2 -508.1,-261 -75.7,-15.9 -330.8,-39.9 -565.9,-53.8 -655.5,-33.9 -978.3,8 -1327,181.3 -189.3,93.6 -348.7,243.1 -428.4,400.5 -63.8,127.5 -167.4,468.3 -269,876.7 -39.8,159.4 -81.7,316.8 -93.7,348.7 -41.8,111.6 -125.5,207.2 -225.2,263 -95.6,53.8 -111.6,55.8 -368.6,55.8 -237.1,0 -279,-6 -348.7,-41.8 -183.3,-99.6 -233.1,-191.3 -336.7,-615.7 -103.6,-428.4 -207.2,-759.2 -275,-890.7 -87.7,-165.4 -261,-320.8 -458.3,-412.5 -318.8,-147.4 -607.7,-191.3 -1161.7,-171.3 -824.9,27.9 -1103.9,125.5 -1313.1,462.3 C 981,-599.1 853.5,-180.7 765.8,319.5 737.9,478.9 700,666.2 684.1,737.9 c -37.9,159.4 -137.5,350.7 -211.2,404.5 -49.8,37.9 -55.8,53.8 -55.8,157.4 0,95.6 6,117.6 41.8,135.5 75.7,41.8 657.5,55.8 2070.3,49.8 1187.6,-4 1426.7,-9.9 1546.2,-35.8 z"
           inkscape:connector-curvature="0" />
        <path
           id="path4384"
           d="m 1062.7,1134.4 c -31.9,-35.9 -37.9,-67.7 -31.9,-203.2 14,-448.3 171.4,-984.3 396.5,-1345 101.6,-165.4 336.7,-424.4 464.3,-512.1 143.5,-99.6 279,-55.8 279,91.7 0,69.7 -12,85.7 -133.5,185.3 -412.5,332.7 -655.6,866.8 -701.4,1534.3 -14,193.3 -19.9,221.2 -59.8,255.1 -61.8,49.7 -165.4,45.7 -213.2,-6.1 z"
           inkscape:connector-curvature="0" />
        <path
           id="path4386"
           d="m 5958.4,1124.5 c -49.8,-63.8 -51.8,-139.5 -11.9,-422.4 73.7,-516.1 237.1,-942.5 490.2,-1279.2 127.5,-167.4 340.7,-362.6 436.4,-394.5 73.7,-25.9 173.3,17.9 191.3,83.7 21.9,89.7 -8,141.5 -133.5,241.1 -65.8,51.8 -171.4,155.4 -231.2,227.2 -131.5,159.2 -306.9,507.9 -372.7,743.1 -55.8,191.3 -111.6,538 -111.6,681.5 0,113.6 -49.8,171.4 -147.5,171.4 -49.7,-0.1 -79.6,-14.1 -109.5,-51.9 z"
           inkscape:connector-curvature="0" />
      </g>
    </g>
    <path
       transform="translate(0,8.3066228e-5)"
       sodipodi:nodetypes="cccc"
       inkscape:connector-curvature="0"
       id="path4255"
       d="m 662.79715,450.01057 4.96179,-12.71232 m 23.69931,2.87639 -6.43929,18.27072"
       style="display:inline;fill:none;fill-opacity:1;fill-rule:evenodd;stroke:#000000;stroke-width:3.99999952;stroke-linecap:butt;stroke-linejoin:miter;stroke-miterlimit:4;stroke-dasharray:none;stroke-opacity:1" />
    <path
       style="color:#000000;font-style:normal;font-variant:normal;font-weight:normal;font-stretch:normal;font-size:medium;line-height:normal;font-family:sans-serif;text-indent:0;text-align:start;text-decoration:none;text-decoration-line:none;text-decoration-style:solid;text-decoration-color:#000000;letter-spacing:normal;word-spacing:normal;text-transform:none;direction:ltr;block-progression:tb;writing-mode:lr-tb;baseline-shift:baseline;text-anchor:start;white-space:normal;clip-rule:nonzero;display:inline;overflow:visible;visibility:visible;opacity:1;isolation:auto;mix-blend-mode:normal;color-interpolation:sRGB;color-interpolation-filters:linearRGB;solid-color:#000000;solid-opacity:1;fill:#000000;fill-opacity:1;fill-rule:evenodd;stroke:none;stroke-width:3.99999952;stroke-linecap:round;stroke-linejoin:round;stroke-miterlimit:4;stroke-dasharray:none;stroke-dashoffset:0;stroke-opacity:1;color-rendering:auto;image-rendering:auto;shape-rendering:auto;text-rendering:auto;enable-background:accumulate"
       d="M 543.62891 695.92578 C 540.48222 695.78692 537.46547 697.22055 535.58594 699.74805 C 534.31545 701.45655 533.11327 703.14918 531.97266 704.82617 L 535.13867 707.28125 C 536.28893 705.58514 537.5068 703.86961 538.79688 702.13477 C 539.88721 700.66854 541.6277 699.84128 543.45312 699.92188 C 543.81926 699.93798 544.18344 699.99168 544.53906 700.08008 L 657.27148 728.16211 L 659.51172 724.5957 L 545.50586 696.19727 C 544.89061 696.04414 544.26231 695.9536 543.62891 695.92578 z M 546.54102 711.95703 A 2.0002008 2.0002008 0 0 0 544.80664 712.82031 C 528.70208 736.1899 527.41462 753.73369 529.90625 765.56445 C 532.53921 778.06619 539.17969 784.27148 539.17969 784.27148 A 2.0002008 2.0002008 0 0 0 539.18164 784.27344 C 541.45802 786.36728 541.57874 789.85478 539.45312 792.10156 C 537.32756 794.34834 533.83784 794.42054 531.62109 792.26367 A 2.0002008 2.0002008 0 0 0 531.61328 792.25586 C 531.61328 792.25586 522.42704 783.42727 519.14258 767.83203 C 517.95746 762.20488 517.53753 755.65404 518.43359 748.29492 L 514.64258 754.10938 L 514.01758 753.53711 C 513.79869 759.06096 514.27379 764.12307 515.22852 768.65625 C 518.75861 785.41777 528.80902 795.10869 528.83203 795.13086 L 528.83398 795.13281 C 532.61448 798.80903 538.73513 798.68243 542.35938 794.85156 C 545.98356 791.02069 545.77069 784.9011 541.89062 781.33008 L 541.88867 781.32812 C 541.88567 781.32512 536.23506 776.20594 533.82031 764.74023 C 531.585 754.12654 532.51125 738.30953 547.36719 716.24414 L 654.49609 742.92969 L 654.94141 738.91797 L 546.93555 712.01367 A 2.0002008 2.0002008 0 0 0 546.54102 711.95703 z M 691.25 733.03711 L 688.81055 736.01758 L 730.00391 746.2793 L 732.84766 742.86523 L 694.38086 733.2832 L 695 734.64453 L 691.25 733.03711 z M 688.03516 747.16016 L 688.03516 751.2832 L 723.5 760.11719 L 724.06836 756.13672 L 688.03516 747.16016 z M 729.26758 757.43164 L 729.11133 761.51562 L 729.28516 761.55859 L 729.28516 757.43555 L 729.26758 757.43164 z M 745.22266 761.88867 L 743.33008 771.89062 C 743.97485 769.21981 744.68464 766.48592 745.52344 763.62891 A 2.0002008 2.0002008 0 0 0 745.22266 761.88867 z M 743.14844 772.64258 L 737.67773 784.10938 L 736.9707 783.73047 C 734.12854 802.68308 736.27278 816.63746 740.60742 826.55664 C 743.76412 833.78022 747.93681 838.74184 751.47852 841.89062 C 755.05607 845.0713 758.57422 846.68945 758.57422 846.68945 A 2.0002008 2.0002008 0 0 0 758.59766 846.70117 C 763.39392 848.83814 769.07098 846.63637 771.17188 841.82422 C 773.27272 837.01203 771.02707 831.35367 766.19922 829.28906 A 2.0002008 2.0002008 0 0 0 766.07617 829.24219 C 766.07966 829.23894 766.0509 829.21457 765.90039 829.11719 C 765.58956 828.91607 765.00367 828.49365 764.10352 827.69336 C 762.36513 826.14783 760.01083 823.51241 758.01758 818.95117 C 756.96242 816.53661 756.00705 813.52228 755.35742 809.83789 L 751.37891 810.22656 C 752.0777 814.34786 753.13798 817.76923 754.35352 820.55078 C 756.58661 825.66086 759.34724 828.81438 761.44531 830.67969 C 762.4634 831.58483 763.19762 832.13237 763.72656 832.47461 C 764.2555 832.81686 764.79492 833.02734 764.79492 833.02734 L 764.62695 832.96484 C 767.45739 834.17526 768.73753 837.4014 767.50586 840.22266 C 766.27558 843.04073 763.04603 844.29461 760.23633 843.04883 C 760.21453 843.03873 757.23901 841.66043 754.13672 838.90234 C 750.98722 836.10225 747.17939 831.60935 744.27148 824.95508 C 739.48472 814.00129 737.33292 797.24365 743.14844 772.64258 z "
       transform="translate(0,-309.82285)"
       id="path4257" />
    <path
       transform="translate(0,4.3066233e-5)"
       style="display:inline;fill:#ffffff;fill-opacity:1;fill-rule:evenodd;stroke:#000000;stroke-width:3.99999952;stroke-linecap:butt;stroke-linejoin:miter;stroke-miterlimit:4;stroke-dasharray:none;stroke-opacity:1"
       d="m 751.44615,687.21286 c 0,0 -32.57618,78.10221 -34.91707,79.93874 -2.26649,2.45405 -6.51151,3.54345 -9.72579,2.56131 l -11.25,-4.19649 c -1.16072,-4.64286 0.44643,-11.51784 3.83929,-13.74998 l 8.66071,1.69644 c 1.31431,0.25744 5.30027,-2.31478 6.34191,-3.9106 2.18068,-3.34083 33.47952,-76.98227 33.47952,-76.98227 1.33929,-1.69643 3.83929,-2.41072 9.19643,-0.80358"
       id="path4423"
       inkscape:connector-curvature="0"
       sodipodi:nodetypes="cccccsscc" />
    <path
       style="color:#000000;font-style:normal;font-variant:normal;font-weight:normal;font-stretch:normal;font-size:medium;line-height:normal;font-family:sans-serif;text-indent:0;text-align:start;text-decoration:none;text-decoration-line:none;text-decoration-style:solid;text-decoration-color:#000000;letter-spacing:normal;word-spacing:normal;text-transform:none;direction:ltr;block-progression:tb;writing-mode:lr-tb;baseline-shift:baseline;text-anchor:start;white-space:normal;clip-rule:nonzero;display:inline;overflow:visible;visibility:visible;opacity:1;isolation:auto;mix-blend-mode:normal;color-interpolation:sRGB;color-interpolation-filters:linearRGB;solid-color:#000000;solid-opacity:1;fill:#000000;fill-opacity:1;fill-rule:evenodd;stroke:none;stroke-width:3.99999952;stroke-linecap:butt;stroke-linejoin:miter;stroke-miterlimit:4;stroke-dasharray:none;stroke-dashoffset:0;stroke-opacity:1;color-rendering:auto;image-rendering:auto;shape-rendering:auto;text-rendering:auto;enable-background:accumulate"
       d="m 768.07617,817.46484 -3.93164,12.8711 3.32617,2.80468 4.43164,-14.50781 z m -8.21875,26.91016 -60.15596,201.7642 2.43721,0.9155 61.625,-201.7715 -0.90625,0.25391 z"
       transform="translate(0,-309.82285)"
       id="path4532"
       inkscape:connector-curvature="0"
       sodipodi:nodetypes="ccccccccccc" />
  </g>
  <g
     inkscape:groupmode="layer"
     id="layer5"
     inkscape:label="cat__fill">
    <path
       style="fill:#ffffff;fill-rule:evenodd;stroke:none;stroke-width:1px;stroke-linecap:butt;stroke-linejoin:miter;stroke-opacity:1;fill-opacity:1"
       d="M 563.41211 568.03711 L 547.75586 568.54297 L 548.76562 620.56445 L 519.4707 697.08398 L 515.17773 701.37695 L 504.82422 714.50977 L 499.26758 729.15625 L 498.50977 743.55078 L 503.81445 751.37891 L 513.1582 735.97461 L 517.45117 715.26758 L 521.23828 706.17578 L 530.33008 703.65039 L 539.16797 710.7207 L 533.10742 728.9043 L 529.82422 743.04688 L 532.34961 749.35938 L 537.90625 747.5918 L 542.70508 740.26758 L 544.97656 729.15625 L 549.52344 720.57031 L 551.03906 708.95312 L 547.50195 693.04297 L 550.28125 697.33594 L 556.8457 690.51758 L 578.81836 658.19336 L 589.42383 640.26367 L 591.44336 631.92969 L 598.26367 601.11914 L 599.77734 580.91602 L 590.18164 573.59375 L 577.04883 568.79492 L 563.41211 568.03711 z M 776.78516 840.89453 L 780.71484 897.67969 L 781.42773 927.67969 L 780.35742 936.25195 L 781.92188 935.95312 L 776.96484 938.75195 L 773.92773 944.64453 L 768.03516 961.07227 L 760 973.92969 L 752.32227 994.28711 L 748.21484 1009.2871 L 750 1019.8223 L 753.75 1025.1797 L 764.82227 1027.1445 L 777.14258 1024.8223 L 786.96484 1018.2148 L 802.32227 998.21484 L 820.89258 966.42969 L 827.67773 952.50195 L 827.14258 943.03711 L 824.46484 932.14453 L 821.07227 927.32227 L 817.45117 928.37891 L 818.21484 927.32227 L 817.5 918.75195 L 818.21484 894.46484 L 821.07227 873.75195 L 829.28516 843.03711 L 776.78516 840.89453 z M 790.02539 934.82031 L 796.12695 936.23828 L 804.78711 941.31641 L 795.53516 936.60938 L 790.02539 934.82031 z M 812.50781 935.21484 L 810 939.10938 L 809.4375 939.46094 L 812.50781 935.21484 z "
       id="path4286" />
  </g>
  <g
     inkscape:groupmode="layer"
     id="layer4"
     inkscape:label="cat"
     style="display:inline"
     transform="translate(0,309.82285)">
    <path
       style="fill:none;fill-opacity:1;fill-rule:evenodd;stroke:#000000;stroke-width:3.99999952;stroke-linecap:round;stroke-linejoin:round;stroke-miterlimit:4;stroke-dasharray:none;stroke-opacity:1"
       d="m 736.40118,229.17231 c 1.28815,26.95628 5.77869,32.48004 8.70359,43.64051 2.92491,11.16047 1.97129,22.3922 4.93347,32.12093 2.96218,9.72873 12.21014,25.24244 13.63706,27.77919 1.42692,2.53675 2.52538,8.08122 2.52538,8.08122"
       id="path4185"
       inkscape:connector-curvature="0"
       sodipodi:nodetypes="czzzc" />
    <path
       style="fill:none;fill-opacity:1;fill-rule:evenodd;stroke:#000000;stroke-width:3.99999952;stroke-linecap:round;stroke-linejoin:round;stroke-miterlimit:4;stroke-dasharray:none;stroke-opacity:1"
       d="m 800.29333,204.17103 2.0203,24.11739 c 1.17268,8.3946 5.13946,24.47923 3.78807,42.0476 l 4.99212,58.21639"
       id="path4191"
       inkscape:connector-curvature="0"
       sodipodi:nodetypes="cccc" />
    <path
       style="fill:none;fill-opacity:1;fill-rule:evenodd;stroke:#000000;stroke-width:3.99999952;stroke-linecap:butt;stroke-linejoin:miter;stroke-miterlimit:4;stroke-dasharray:none;stroke-opacity:1"
       d="m 831.35552,477.66983 c 0,0 24.41143,-55.82294 36.36549,-83.84266 11.39822,-26.71686 11.68314,-51.96908 8.5863,-81.31728 -1.48709,-14.09292 -4.1285,-28.34248 -9.59645,-41.41625 -2.30681,-5.51555 -6.6848,-9.93071 -9.59645,-15.15229 -3.37373,-6.05024 -5.39571,-12.82867 -9.09138,-18.68782 -6.77517,-10.74142 -14.93189,-20.64945 -23.73858,-29.7995 -5.54654,-5.7628 -12.46868,-9.9433 -18.18275,-15.65737 -18.92136,-31.0178 -31.88709,-43.94734 -65.15484,-61.11423"
       id="path4215"
       inkscape:connector-curvature="0"
       sodipodi:nodetypes="cssaaaacc" />
    <path
       style="fill:none;fill-opacity:1;fill-rule:evenodd;stroke:#000000;stroke-width:3.99999952;stroke-linecap:round;stroke-linejoin:round;stroke-miterlimit:4;stroke-dasharray:none;stroke-opacity:1"
       d="m 745.34461,272.7568 c 34.55357,-18.30357 60.65512,-2.42078 60.65512,-2.42078"
       id="path4219"
       inkscape:connector-curvature="0"
       sodipodi:nodetypes="cc" />
    <path
       style="display:inline;fill:none;fill-opacity:1;fill-rule:evenodd;stroke:#000000;stroke-width:3.99999952;stroke-linecap:butt;stroke-linejoin:miter;stroke-miterlimit:4;stroke-dasharray:none;stroke-opacity:1"
       d="m 764.57254,335.05251 c 0,0 -7.13873,28.38404 -8.8673,37.85714 -1.72858,9.4731 -5.88665,37.58109 -10.59699,56.07143 -12.63559,0.40759 -14.38835,6.27116 -18.75118,11.65366 -5.55526,6.85361 -4.51721,22.40574 0.43863,27.45502"
       id="path4187"
       inkscape:connector-curvature="0"
       sodipodi:nodetypes="czcsc" />
    <path
       style="display:inline;fill:none;fill-opacity:1;fill-rule:evenodd;stroke:#000000;stroke-width:3.99999952;stroke-linecap:round;stroke-linejoin:round;stroke-miterlimit:4;stroke-dasharray:none;stroke-opacity:1"
       d="m 734.09175,493.3307 c 0,0 7.08793,8.5968 17.2665,7.61466 9.37393,-1.03945 18.54234,-10.29104 18.54234,-10.29104 7.3236,-10.10153 9.55248,-37.80775 9.55248,-37.80775 l 28.33375,-85.6512 c 0,0 4.91067,-14.68722 6.42857,-24.64286 1.5179,-9.95564 -7.5,-16.96428 -7.5,-16.96428"
       id="path4189"
       inkscape:connector-curvature="0"
       sodipodi:nodetypes="ccccczc" />
    <path
       style="display:inline;fill:none;fill-opacity:1;fill-rule:evenodd;stroke:#000000;stroke-width:3.99999952;stroke-linecap:round;stroke-linejoin:round;stroke-miterlimit:4;stroke-dasharray:none;stroke-opacity:1"
       d="m 827.3149,472.99788 c 0,0 5.38324,5.1188 6.566,8.71256 1.94778,5.91828 2.72315,14.91045 2.27285,21.08694 -0.92632,12.70562 -16.61257,60.29243 -17.8383,78.47437 -1.22573,18.18194 -1.06434,26.28077 -1.06434,28.06648 0,2.76786 0.80208,8.23167 0.80208,8.23167"
       id="path4193"
       inkscape:connector-curvature="0"
       sodipodi:nodetypes="csszcc" />
    <path
       style="display:inline;fill:none;fill-opacity:1;fill-rule:evenodd;stroke:#000000;stroke-width:3.99999952;stroke-linecap:round;stroke-linejoin:round;stroke-miterlimit:4;stroke-dasharray:none;stroke-opacity:1"
       d="m 767.46337,492.94839 c 0,0 -0.63135,10.48033 1.01015,13.76333 2.0203,2.90419 6.3014,6.0721 6.81853,10.10152 4.29456,33.46275 5.89504,99.01688 5.89504,99.01688 0.0893,4.28571 -1.16961,10.84693 -1.16961,10.84693"
       id="path4195"
       inkscape:connector-curvature="0"
       sodipodi:nodetypes="ccscc" />
    <path
       style="display:inline;fill:none;fill-opacity:1;fill-rule:evenodd;stroke:#000000;stroke-width:3.99999952;stroke-linecap:round;stroke-linejoin:round;stroke-miterlimit:4;stroke-dasharray:none;stroke-opacity:1"
       d="m 779.5852,511.50994 c 5.42957,1.6415 12.87944,1.01016 12.87944,1.01016"
       id="path4197"
       inkscape:connector-curvature="0"
       sodipodi:nodetypes="cc" />
    <path
       style="display:inline;fill:none;fill-opacity:1;fill-rule:evenodd;stroke:#000000;stroke-width:3.99999952;stroke-linecap:round;stroke-linejoin:round;stroke-miterlimit:4;stroke-dasharray:none;stroke-opacity:1"
       d="m 794.48495,463.52769 c 0,0 7.44988,1.13643 8.96511,5.80838"
       id="path4213"
       inkscape:connector-curvature="0"
       sodipodi:nodetypes="cc" />
    <path
       style="display:inline;fill:none;fill-opacity:1;fill-rule:evenodd;stroke:#000000;stroke-width:3.99999952;stroke-linecap:butt;stroke-linejoin:miter;stroke-miterlimit:4;stroke-dasharray:none;stroke-opacity:1"
       d="m 792.03908,415.92688 c 38.02457,2.02556 53.43062,28.94249 53.43062,28.94249"
       id="path4217"
       inkscape:connector-curvature="0"
       sodipodi:nodetypes="cc" />
    <path
       style="display:inline;fill:none;fill-opacity:1;fill-rule:evenodd;stroke:#000000;stroke-width:3.99999952;stroke-linecap:round;stroke-linejoin:round;stroke-miterlimit:4;stroke-dasharray:none;stroke-opacity:1"
       d="m 624.08484,549.70633 c 0.97117,-3.56875 22.25161,-6.41964 25.01954,11.28006 l -59.59111,190.64137 c 0,0 -1.79801,5.41677 2.1376,6.80583 3.01743,1.06499 5.46918,-2.91316 5.46918,-2.91316 l 3.53553,-5.8517 c 0,0 4.30059,-1.53799 7.9613,-5.8237 0,0 54.7395,-171.96578 55.45379,-173.93007 1.74981,-15.18664 -0.44906,-21.26768 -3.30466,-32.01478 -10.2278,-10.35406 -23.86486,-13.38452 -32.32489,-9.97526 -10.07124,6.63551 -14.92904,10.83719 -20.83439,20.96067"
       id="path4236"
       inkscape:connector-curvature="0"
       sodipodi:nodetypes="cccsccccccc" />
    <path
       style="display:inline;opacity:1;fill:none;fill-opacity:1;stroke:#000000;stroke-width:3.99999952;stroke-linecap:round;stroke-linejoin:round;stroke-miterlimit:4;stroke-dasharray:none;stroke-dashoffset:19.49999809;stroke-opacity:1"
       d="M 589.33008 1042.6387 C 584.83558 1042.815 580.56074 1048.1123 578.24023 1055.9473 C 575.58822 1064.9015 577.43854 1074.3468 582.79688 1074.9316 C 586.97004 1075.3871 590.40453 1072.9648 593 1068.3711 L 592.5 1068.3945 L 589.10742 1066.252 L 589.82227 1061.0723 L 594.54297 1045.1973 C 593.66401 1044.0711 592.56281 1043.2695 591.26367 1042.8848 C 590.61764 1042.6934 589.97215 1042.6135 589.33008 1042.6387 z "
       transform="translate(0,-309.82285)"
       id="path4240" />
    <path
       style="color:#000000;font-style:normal;font-variant:normal;font-weight:normal;font-stretch:normal;font-size:medium;line-height:normal;font-family:sans-serif;text-indent:0;text-align:start;text-decoration:none;text-decoration-line:none;text-decoration-style:solid;text-decoration-color:#000000;letter-spacing:normal;word-spacing:normal;text-transform:none;direction:ltr;block-progression:tb;writing-mode:lr-tb;baseline-shift:baseline;text-anchor:start;white-space:normal;clip-rule:nonzero;display:inline;overflow:visible;visibility:visible;opacity:1;isolation:auto;mix-blend-mode:normal;color-interpolation:sRGB;color-interpolation-filters:linearRGB;solid-color:#000000;solid-opacity:1;fill:#000000;fill-opacity:1;fill-rule:nonzero;stroke:none;stroke-width:3.99999952;stroke-linecap:round;stroke-linejoin:round;stroke-miterlimit:4;stroke-dasharray:none;stroke-dashoffset:19.49999809;stroke-opacity:1;color-rendering:auto;image-rendering:auto;shape-rendering:auto;text-rendering:auto;enable-background:accumulate"
       d="M 552.53711 1031.2051 C 550.22287 1031.3069 548.00164 1032.5149 546.23828 1034.3242 C 543.88714 1036.7367 542.05065 1040.2435 540.80273 1044.457 C 539.53357 1048.7422 539.31742 1053.0822 540.12891 1056.6602 C 540.53465 1058.4491 541.19826 1060.0629 542.23633 1061.3691 C 543.2744 1062.6754 544.77 1063.6625 546.50977 1063.8926 C 549.62476 1064.3044 552.61935 1062.9408 554.92773 1060.5449 C 555.99613 1059.436 556.94731 1058.0983 557.79102 1056.5742 L 553.75195 1055.543 C 553.20617 1056.4113 552.63404 1057.1621 552.04883 1057.7695 C 550.36286 1059.5194 548.74626 1060.1523 547.0332 1059.9258 C 546.39686 1059.8417 545.90286 1059.5549 545.36719 1058.8809 C 544.83152 1058.2068 544.33728 1057.1334 544.0293 1055.7754 C 543.41332 1053.0595 543.54739 1049.2718 544.63672 1045.5938 C 545.74729 1041.844 547.40235 1038.8627 549.10352 1037.1172 C 550.80468 1035.3716 552.2527 1034.8873 553.73438 1035.3262 C 555.17777 1035.7537 556.36966 1037.1551 556.99414 1039.6855 C 557.13333 1040.2496 557.22993 1040.8673 557.29492 1041.5176 L 561.38281 1043.2559 C 561.38682 1041.6544 561.22302 1040.1289 560.87695 1038.7266 C 560.03498 1035.3148 558.02197 1032.424 554.86914 1031.4902 C 554.0905 1031.2596 553.30852 1031.1711 552.53711 1031.2051 z "
       transform="translate(0,-309.82285)"
       id="path4245" />
    <path
       style="color:#000000;font-style:normal;font-variant:normal;font-weight:normal;font-stretch:normal;font-size:medium;line-height:normal;font-family:sans-serif;text-indent:0;text-align:start;text-decoration:none;text-decoration-line:none;text-decoration-style:solid;text-decoration-color:#000000;letter-spacing:normal;word-spacing:normal;text-transform:none;direction:ltr;block-progression:tb;writing-mode:lr-tb;baseline-shift:baseline;text-anchor:start;white-space:normal;clip-rule:nonzero;display:inline;overflow:visible;visibility:visible;opacity:1;isolation:auto;mix-blend-mode:normal;color-interpolation:sRGB;color-interpolation-filters:linearRGB;solid-color:#000000;solid-opacity:1;fill:#000000;fill-opacity:1;fill-rule:evenodd;stroke:none;stroke-width:3.99999952;stroke-linecap:butt;stroke-linejoin:miter;stroke-miterlimit:4;stroke-dasharray:none;stroke-dashoffset:0;stroke-opacity:1;color-rendering:auto;image-rendering:auto;shape-rendering:auto;text-rendering:auto;enable-background:accumulate"
       d="m 554.21875,726.16602 c -1.58289,-0.3247 -3.24919,0.30856 -4.89258,1.91796 -1.64339,1.60941 -3.20591,4.24623 -4.43945,8.51368 -1.24029,4.29073 -1.25742,7.43645 -0.66406,9.69726 0.29668,1.13041 0.74325,2.03648 1.31054,2.73633 0.5673,0.69985 1.19234,1.27734 2.30469,1.4082 0.94415,0.11108 1.57069,-0.19194 2.08008,-0.45117 0.50939,-0.25922 0.93542,-0.55139 1.34765,-0.82812 0.81871,-0.54961 1.60105,-1.00305 1.94922,-1.09375 0.10733,0.008 0.2632,0.0231 0.52539,0.0664 0.63163,0.10427 1.5863,0.31179 2.71094,0.58789 2.24929,0.55221 5.20899,1.37827 8.13867,2.23047 5.85936,1.7044 11.60547,3.51367 11.60547,3.51367 l 1.20313,-3.81445 c 0,0 -5.77618,-1.82036 -11.69141,-3.54101 -2.95761,-0.86033 -5.94715,-1.69514 -8.30273,-2.27344 -1.17779,-0.28915 -2.18978,-0.5147 -3.01172,-0.65039 -0.41097,-0.0679 -0.76734,-0.11544 -1.14063,-0.12891 -0.18664,-0.007 -0.37615,-0.009 -0.63086,0.0273 -0.2547,0.0359 -0.60605,0.0497 -1.13867,0.48243 l 0.77539,-0.38868 c -1.42341,0.35586 -2.4243,1.12618 -3.22265,1.66211 -0.23277,0.15626 -0.3675,0.23158 -0.54297,0.33985 -0.13096,-0.2149 -0.27224,-0.4121 -0.40039,-0.90039 -0.35091,-1.33704 -0.45757,-3.77794 0.63867,-7.57032 1.10298,-3.81578 2.42525,-5.82025 3.39258,-6.76757 0.96732,-0.94733 1.63741,-0.78637 1.29101,-0.85743 -0.23506,-0.0482 -0.19914,-0.15975 0.14844,0.40625 0.34758,0.56601 0.83468,1.54918 1.64258,2.58789 l -0.37305,-0.79492 c 0.25499,1.14749 0.81193,1.3434 1.17383,1.58594 0.3619,0.24254 0.72008,0.41714 1.12891,0.59766 0.81764,0.36102 1.83013,0.71648 3.02148,1.09375 2.38271,0.75452 5.4474,1.57321 8.49805,2.33984 6.10128,1.53327 12.13672,2.84766 12.13672,2.84766 l 0.85156,-3.90821 c 0,0 -5.99313,-1.30538 -12.01367,-2.81836 -3.01027,-0.75648 -6.02967,-1.56795 -8.26368,-2.27539 -1.117,-0.35371 -2.0449,-0.68567 -2.61523,-0.9375 -0.22012,-0.0972 -0.31815,-0.15542 -0.39844,-0.20117 -0.51286,-0.66276 -0.88852,-1.40919 -1.38086,-2.21094 -0.49551,-0.80689 -1.2804,-1.92861 -2.75195,-2.23046 z"
       id="path4247"
       inkscape:connector-curvature="0" />
    <path
       style="color:#000000;font-style:normal;font-variant:normal;font-weight:normal;font-stretch:normal;font-size:medium;line-height:normal;font-family:sans-serif;text-indent:0;text-align:start;text-decoration:none;text-decoration-line:none;text-decoration-style:solid;text-decoration-color:#000000;letter-spacing:normal;word-spacing:normal;text-transform:none;direction:ltr;block-progression:tb;writing-mode:lr-tb;baseline-shift:baseline;text-anchor:start;white-space:normal;clip-rule:nonzero;display:inline;overflow:visible;visibility:visible;opacity:1;isolation:auto;mix-blend-mode:normal;color-interpolation:sRGB;color-interpolation-filters:linearRGB;solid-color:#000000;solid-opacity:1;fill:#000000;fill-opacity:1;fill-rule:evenodd;stroke:none;stroke-width:3.99999952;stroke-linecap:butt;stroke-linejoin:miter;stroke-miterlimit:4;stroke-dasharray:none;stroke-dashoffset:0;stroke-opacity:1;color-rendering:auto;image-rendering:auto;shape-rendering:auto;text-rendering:auto;enable-background:accumulate"
       d="m 735.18164,437.69141 c -1.1793,0.0487 -2.36754,0.35044 -3.47852,0.99023 -2.22195,1.27959 -3.92868,3.72311 -5.03124,7.34375 l -0.10352,0.33789 0.0195,0.35156 c 0,0 0.13577,2.51016 0.20508,5.41211 0.0693,2.90196 0.0256,6.34428 -0.16797,7.50586 l 0.041,-0.18945 c -0.55517,2.06927 -1.28879,6.18704 -2.08399,10.4707 -0.7952,4.28367 -1.64724,8.71066 -2.20703,10.66992 l -0.0195,0.0625 -0.0137,0.0645 c -2.2406,10.36273 -1.34149,23.39887 -2.41407,30.20898 -1.15514,5.9743 -5.50781,14.57227 -5.50781,14.57227 l -0.0723,0.14258 -0.0508,0.15429 c -0.50118,1.533 -0.47078,3.06742 0.0996,4.32813 0.57039,1.2607 1.63975,2.16393 2.82227,2.60351 2.36504,0.87916 5.31195,0.0438 6.95703,-2.42382 l 0.006,-0.01 0.008,-0.01 c 0,0 7.29127,-10.98433 9.35157,-19.02929 l 0.0117,-0.0488 0.01,-0.0508 c 0.78902,-3.89868 1.44011,-9.34194 1.99609,-14.32813 0.55541,-4.98097 1.03398,-9.58267 1.34375,-11.25195 0.89707,-4.38519 4.91797,-15.81445 4.91797,-15.81445 l -0.11523,0.26367 c 6.14169,-11.632 5.92187,-22.55664 5.92187,-22.55664 l -0.006,-0.3086 -0.0996,-0.29296 c -1.18965,-3.51717 -4.61409,-7.15274 -8.91601,-8.64063 -1.07548,-0.37197 -2.24453,-0.57604 -3.42383,-0.52734 z m 0.20117,3.9707 c 0.59297,-0.0196 1.22476,0.0969 1.91602,0.33594 2.68258,0.92782 5.57607,4.15175 6.29101,5.9414 0.005,0.60182 0.0427,9.86136 -5.42187,20.21094 l -0.0664,0.12695 -0.0488,0.13477 c 0,0 -4.00294,11.11032 -5.07617,16.37891 l -0.002,0.0156 -0.004,0.0176 c -0.40454,2.17442 -0.83363,6.59256 -1.38672,11.55273 -0.55076,4.9394 -1.20838,10.31858 -1.93359,13.91993 -1.7045,6.59463 -8.78911,17.75755 -8.80664,17.78515 -0.67617,1.0092 -1.64273,1.10788 -2.23242,0.88867 -0.2954,-0.10981 -0.46391,-0.2644 -0.57227,-0.5039 -0.106,-0.23429 -0.17886,-0.64914 0.0586,-1.4043 0.21935,-0.41996 4.44789,-8.5426 5.76757,-15.42383 l 0.008,-0.0312 0.004,-0.0312 c 1.24285,-7.8395 0.33255,-20.57319 2.375,-30.01953 l -0.0312,0.12695 c 0.69021,-2.41574 1.49592,-6.7454 2.29297,-11.03906 0.79706,-4.29366 1.58866,-8.57262 2.01563,-10.16406 l 0.0254,-0.0937 0.0156,-0.0957 c 0.34212,-2.05271 0.29168,-5.28835 0.22071,-8.25977 -0.065,-2.7217 -0.1714,-4.68612 -0.19141,-5.06641 0.90399,-2.80805 2.06119,-4.21839 3.09961,-4.8164 0.53687,-0.30918 1.09063,-0.46669 1.68359,-0.48633 z"
       id="path4249"
       inkscape:connector-curvature="0" />
    <path
       style="display:inline;fill:none;fill-opacity:1;fill-rule:evenodd;stroke:#000000;stroke-width:3.99999952;stroke-linecap:round;stroke-linejoin:round;stroke-miterlimit:4;stroke-dasharray:none;stroke-opacity:1"
       d="m 611.17968,577.28465 c 0,0 -54.18382,145.72334 -55.25524,146.79477"
       id="path4251"
       inkscape:connector-curvature="0"
       sodipodi:nodetypes="cc" />
    <path
       sodipodi:nodetypes="ccczc"
       inkscape:connector-curvature="0"
       id="path4253"
       d="m 593.18861,584.96322 -52.04096,140.00906 0.31575,6.75989 c 0,0 -1.91003,5.5232 -1.63253,7.33367 0.27751,1.81047 1.73714,3.01142 1.73714,3.01142"
       style="display:inline;fill:none;fill-opacity:1;fill-rule:evenodd;stroke:#000000;stroke-width:3.99999952;stroke-linecap:round;stroke-linejoin:round;stroke-miterlimit:4;stroke-dasharray:none;stroke-opacity:1" />
    <path
       style="display:inline;fill:none;fill-opacity:1;fill-rule:evenodd;stroke:#000000;stroke-width:3.99999952;stroke-linecap:butt;stroke-linejoin:miter;stroke-miterlimit:4;stroke-dasharray:none;stroke-opacity:1"
       d="m 628.31486,527.92492 c 5.55584,-9.84899 32.57742,-77.78174 32.57742,-77.78174 20.20305,-2.27284 25.25381,10.85914 25.25381,10.85914 0,0 -22.98097,62.88199 -25.25381,76.51905 0,0 -17.42514,-16.16244 -32.57742,-9.59645 z"
       id="path4238"
       inkscape:connector-curvature="0"
       sodipodi:nodetypes="ccccc" />
    <path
       style="fill:none;fill-opacity:1;fill-rule:evenodd;stroke:#000000;stroke-width:3.99999952;stroke-linecap:round;stroke-linejoin:round;stroke-miterlimit:4;stroke-dasharray:none;stroke-opacity:1"
       d="m 737.28506,478.93253 c 12.99039,2.82651 18.71212,-4.81465 18.71212,-4.81465"
       id="path4313"
       inkscape:connector-curvature="0"
       sodipodi:nodetypes="cc" />
    <path
       style="fill:none;fill-opacity:1;fill-rule:evenodd;stroke:#000000;stroke-width:3.99999952;stroke-linecap:round;stroke-linejoin:round;stroke-miterlimit:4;stroke-dasharray:none;stroke-opacity:1"
       d="m 734.93826,486.80454 c -1.6e-4,0.002 12.75953,12.31823 27.2868,-2.67332"
       id="path4315"
       inkscape:connector-curvature="0"
       sodipodi:nodetypes="cc" />
    <path
       style="fill:none;fill-opacity:1;fill-rule:evenodd;stroke:#000000;stroke-width:3.99999952;stroke-linecap:round;stroke-linejoin:round;stroke-miterlimit:4;stroke-dasharray:none;stroke-opacity:1"
       d="m 745.18005,428.93895 c 0,0 4.98949,-0.33285 7.62342,-3.36857"
       id="path4319"
       inkscape:connector-curvature="0"
       sodipodi:nodetypes="cc" />
    <path
       style="fill:none;fill-opacity:1;fill-rule:evenodd;stroke:#000000;stroke-width:3.99999952;stroke-linecap:round;stroke-linejoin:round;stroke-miterlimit:4;stroke-dasharray:none;stroke-opacity:1"
       d="m 685.19753,464.33823 39.73215,1.42857"
       id="path4336"
       inkscape:connector-curvature="0"
       sodipodi:nodetypes="cc" />
    <path
       style="fill:none;fill-opacity:1;fill-rule:evenodd;stroke:#000000;stroke-width:3.99999952;stroke-linecap:butt;stroke-linejoin:miter;stroke-miterlimit:4;stroke-dasharray:none;stroke-opacity:1"
       d="m 679.21539,481.48108 44.91071,1.07143"
       id="path4338"
       inkscape:connector-curvature="0"
       sodipodi:nodetypes="cc" />
    <path
       style="fill:none;fill-opacity:1;fill-rule:evenodd;stroke:#000000;stroke-width:3.99999952;stroke-linecap:round;stroke-linejoin:round;stroke-miterlimit:4;stroke-dasharray:none;stroke-opacity:1"
       d="M 672.4657,742.29917 658.13416,589.07165"
       id="path4340"
       inkscape:connector-curvature="0"
       sodipodi:nodetypes="cc" />
    <path
       style="fill:none;fill-opacity:1;fill-rule:evenodd;stroke:#000000;stroke-width:3.99999952;stroke-linecap:round;stroke-linejoin:round;stroke-miterlimit:4;stroke-dasharray:none;stroke-opacity:1"
       d="M 692.25033,747.06457 671.33562,503.47467"
       id="path4342"
       inkscape:connector-curvature="0"
       sodipodi:nodetypes="cc" />
    <path
       style="color:#000000;font-style:normal;font-variant:normal;font-weight:normal;font-stretch:normal;font-size:medium;line-height:normal;font-family:sans-serif;text-indent:0;text-align:start;text-decoration:none;text-decoration-line:none;text-decoration-style:solid;text-decoration-color:#000000;letter-spacing:normal;word-spacing:normal;text-transform:none;direction:ltr;block-progression:tb;writing-mode:lr-tb;baseline-shift:baseline;text-anchor:start;white-space:normal;clip-rule:nonzero;display:inline;overflow:visible;visibility:visible;opacity:1;isolation:auto;mix-blend-mode:normal;color-interpolation:sRGB;color-interpolation-filters:linearRGB;solid-color:#000000;solid-opacity:1;fill:#000000;fill-opacity:1;fill-rule:nonzero;stroke:none;stroke-width:3.99999952;stroke-linecap:round;stroke-linejoin:round;stroke-miterlimit:4;stroke-dasharray:none;stroke-dashoffset:19.49999809;stroke-opacity:1;color-rendering:auto;image-rendering:auto;shape-rendering:auto;text-rendering:auto;enable-background:accumulate"
       d="M 723.26953 227.38281 C 592.53602 227.38281 467.15545 279.31719 374.71289 371.75977 C 282.27033 464.20233 230.33594 589.58288 230.33594 720.31641 C 230.33594 851.04993 282.27033 976.43244 374.71289 1068.875 C 405.89705 1100.0592 440.83343 1126.6261 478.45508 1148.1523 L 478.51172 1143.5742 C 441.92965 1122.421 407.93913 1096.443 377.54102 1066.0449 C 285.84749 974.35143 234.33594 849.9906 234.33594 720.31641 C 234.33594 590.6422 285.84749 466.2814 377.54102 374.58789 C 469.23452 282.89439 593.59535 231.38281 723.26953 231.38281 C 852.94374 231.38281 977.30464 282.89439 1068.998 374.58789 C 1160.6917 466.2814 1212.2031 590.6422 1212.2031 720.31641 C 1212.2031 849.9906 1160.6917 974.35143 1068.998 1066.0449 C 977.30464 1157.7384 852.94374 1209.252 723.26953 1209.252 C 676.99756 1209.252 631.40568 1202.685 587.73047 1190.0801 L 585.63086 1193.6348 C 629.96435 1206.531 676.26932 1213.252 723.26953 1213.252 C 854.00307 1213.252 979.38355 1161.3176 1071.8262 1068.875 C 1164.2687 976.43244 1216.2031 851.04993 1216.2031 720.31641 C 1216.2031 589.58288 1164.2687 464.20233 1071.8262 371.75977 C 979.38355 279.31719 854.00307 227.38281 723.26953 227.38281 z M 499.46875 1155.0176 L 499.57422 1159.5625 C 520.58719 1170.2632 542.34318 1179.434 564.66406 1187.0215 L 566.95898 1183.582 C 543.7839 1175.7609 521.22148 1166.2162 499.46875 1155.0176 z "
       id="path4344"
       transform="translate(0,-309.82285)" />
    <path
       style="display:inline;opacity:1;fill:none;fill-opacity:1;fill-rule:evenodd;stroke:#000000;stroke-width:3.99999952;stroke-linecap:butt;stroke-linejoin:miter;stroke-miterlimit:4;stroke-dasharray:none;stroke-opacity:1"
       d="m 807.16045,632.2129 c -3.57143,-0.71428 -4.28572,-4.2857 -17.85715,-7.49999 -14.82143,0 -15.35714,10.17857 -15.35714,10.17857 l -5.71429,16.96428 c 0,0 -10.71428,14.64286 -16.60714,34.82143 0,0 -9.87256,24.59363 5.71429,29.64286 14.88852,4.82302 28.21428,-6.96429 28.21428,-6.96429 19.82143,-21.60714 36.46986,-50.57838 41.78572,-67.32143 1.3373,-4.21202 -1.07143,-13.21428 -1.07143,-13.21428 -1.39785,-5.3964 -2.89853,-9.6907 -5.17857,-11.07143 -1.08102,-0.65464 -3.02281,-0.63807 -3.77232,0.37947 -3.24625,4.40714 -8.6384,14.35267 -10.15625,14.08481 z"
       id="path4414"
       inkscape:connector-curvature="0"
       sodipodi:nodetypes="cccccscssssc" />
    <path
       style="fill:none;fill-opacity:1;fill-rule:evenodd;stroke:#000000;stroke-width:3.99999952;stroke-linecap:round;stroke-linejoin:round;stroke-miterlimit:4;stroke-dasharray:none;stroke-opacity:1"
       d="m 804.21401,617.39144 c 0.0893,0.0893 5.64743,1.20962 7.85714,-2.76786"
       id="path4421"
       inkscape:connector-curvature="0"
       sodipodi:nodetypes="cc" />
    <path
       style="fill:none;fill-opacity:1;fill-rule:evenodd;stroke:#000000;stroke-width:3.99999952;stroke-linecap:butt;stroke-linejoin:miter;stroke-miterlimit:4;stroke-dasharray:none;stroke-opacity:1"
       d="m 581.62472,764.53432 c -3.03571,7.5 -18.39286,23.0357 -18.39286,23.0357 0,0 -8.40453,8.78171 -6.07143,21.60713 2.33311,12.82541 24.29009,18.06267 36.60715,9.82147"
       id="path4428"
       inkscape:connector-curvature="0"
       sodipodi:nodetypes="cccc" />
    <path
       style="fill:none;fill-opacity:1;fill-rule:evenodd;stroke:#000000;stroke-width:3.99999952;stroke-linecap:butt;stroke-linejoin:miter;stroke-miterlimit:4;stroke-dasharray:none;stroke-opacity:1"
       d="m 518.85051,438.04444 c 5.3413,0.85848 9.20191,1.26346 9.07497,5.7375 0.25254,5.3033 -14.67195,3.33529 -14.67195,3.33529"
       id="path4434"
       inkscape:connector-curvature="0"
       sodipodi:nodetypes="ccc" />
    <path
       style="fill:none;fill-opacity:1;fill-rule:evenodd;stroke:#000000;stroke-width:3.99999952;stroke-linecap:round;stroke-linejoin:round;stroke-miterlimit:4;stroke-dasharray:none;stroke-opacity:1"
       d="m 504.19239,442.1883 c -4.59195,-3.86807 -6.4949,-11.42254 -5.68211,-16.92005 2.05417,-13.89388 6.42693,-22.5345 20.20305,-37.75445 0,0 24.16131,-67.26529 29.8756,-76.90815 0,0 -2.32142,-39.28571 -0.53571,-50.89285 0,0 -1.60715,-47.49999 3.75,-77.67856 1.25,-15.89286 19.44262,-29.20091 19.44262,-29.20091"
       id="path4436"
       inkscape:connector-curvature="0"
       sodipodi:nodetypes="csccccc" />
    <path
       sodipodi:nodetypes="ccc"
       inkscape:connector-curvature="0"
       id="path4438"
       d="m 524.09068,429.90009 c 3.63666,1.67922 3.96174,4.86213 2.1933,6.68451 -2.39911,2.77792 -7.53775,0.87305 -7.53775,0.87305"
       style="fill:none;fill-opacity:1;fill-rule:evenodd;stroke:#000000;stroke-width:3.99999952;stroke-linecap:butt;stroke-linejoin:miter;stroke-miterlimit:4;stroke-dasharray:none;stroke-opacity:1" />
    <path
       style="fill:none;fill-opacity:1;fill-rule:evenodd;stroke:#000000;stroke-width:3.99999952;stroke-linecap:round;stroke-linejoin:round;stroke-miterlimit:4;stroke-dasharray:none;stroke-opacity:1"
       d="m 508.33909,434.34412 c -1.95717,-1.32583 -3.81128,-4.49228 -3.81128,-4.49228"
       id="path4440"
       inkscape:connector-curvature="0"
       sodipodi:nodetypes="cc" />
    <path
       style="fill:none;fill-opacity:1;fill-rule:evenodd;stroke:#000000;stroke-width:3.99999952;stroke-linecap:round;stroke-linejoin:round;stroke-miterlimit:4;stroke-dasharray:none;stroke-opacity:1"
       d="m 513.28376,426.34153 c 0,0 -2.90419,-0.63134 -4.16687,-4.79821"
       id="path4442"
       inkscape:connector-curvature="0"
       sodipodi:nodetypes="cc" />
    <path
       style="color:#000000;font-style:normal;font-variant:normal;font-weight:normal;font-stretch:normal;font-size:medium;line-height:normal;font-family:sans-serif;text-indent:0;text-align:start;text-decoration:none;text-decoration-line:none;text-decoration-style:solid;text-decoration-color:#000000;letter-spacing:normal;word-spacing:normal;text-transform:none;direction:ltr;block-progression:tb;writing-mode:lr-tb;baseline-shift:baseline;text-anchor:start;white-space:normal;clip-rule:nonzero;display:inline;overflow:visible;visibility:visible;opacity:1;isolation:auto;mix-blend-mode:normal;color-interpolation:sRGB;color-interpolation-filters:linearRGB;solid-color:#000000;solid-opacity:1;fill:#000000;fill-opacity:1;fill-rule:evenodd;stroke:none;stroke-width:3.99999952;stroke-linecap:round;stroke-linejoin:round;stroke-miterlimit:4;stroke-dasharray:none;stroke-dashoffset:0;stroke-opacity:1;color-rendering:auto;image-rendering:auto;shape-rendering:auto;text-rendering:auto;enable-background:accumulate"
       d="m 605.08398,556.1875 c -1.00332,-8.3e-4 -1.85201,0.74178 -1.98437,1.73633 0,0 -2.19508,15.89194 -4.85156,23.03125 -0.10268,0.27551 -0.14336,0.57026 -0.11914,0.86328 0.006,0.068 -0.0461,1.3102 -0.24024,2.86914 -0.19412,1.55895 -0.49459,3.59264 -0.86719,5.91797 -0.74518,4.65067 -1.77584,10.47688 -2.81836,16.16992 -2.08501,11.38609 -4.21679,22.24219 -4.21679,22.24219 -0.0174,0.0909 -0.0285,0.18294 -0.0332,0.27539 -0.10361,1.87096 -1.48124,6.23735 -3.89257,11.54492 -2.41133,5.30758 -5.81311,11.71346 -9.83008,18.41992 -8.03395,13.4129 -18.56614,28.05148 -28.5293,37.70117 -2.02701,1.85154 0.86489,4.83888 2.78125,2.87305 10.39852,-10.07136 21.01494,-24.88824 29.17969,-38.51953 4.08238,-6.81564 7.54376,-13.3279 10.03906,-18.82031 2.4439,-5.37925 3.99629,-9.62101 4.22461,-12.77344 l -0.0137,0.0703 0.0352,-0.27539 c -0.004,0.0653 -0.0167,0.13876 -0.0215,0.20508 0.0217,-0.11059 2.13081,-10.8633 4.21094,-22.22266 1.04542,-5.70893 2.08019,-11.55343 2.83398,-16.25781 0.3769,-2.35219 0.68465,-4.41829 0.88868,-6.05664 0.17123,-1.37512 0.22892,-2.23422 0.21484,-3.10156 2.18186,-6.00068 3.49929,-13.89403 4.23437,-18.79688 6.19741,8.3792 24.66246,30.53077 56.19532,44.6543 0.37492,17.46041 5.30984,49.76757 5.43554,50.58398 l -20.56836,63.96094 c -0.008,0.0246 -0.0148,0.0493 -0.0215,0.0742 -0.0521,0.18654 -0.10066,0.37745 -0.15234,0.56445 l 3.92382,0.80664 c 0.0244,-0.0879 0.0478,-0.17781 0.0723,-0.26562 l 20.69336,-64.35156 c 0.0955,-0.29544 0.12091,-0.60906 0.0742,-0.91602 0,0 -5.35878,-35.16951 -5.53321,-51.74023 -0.008,-0.78758 -0.47748,-1.49713 -1.19921,-1.8125 -38.69541,-16.88527 -58.4629,-47.73242 -58.4629,-47.73242 -0.36709,-0.5735 -1.00072,-0.92086 -1.68164,-0.92188 z m 38.35547,182.4043 c -8.5068,39.83611 -15.0311,91.83536 -15.0311,91.83536 -0.12946,2.71583 3.97352,2.83209 3.99805,0.11328 0,0 6.58113,-51.98016 14.98618,-91.29825 z"
       transform="translate(0,-309.82285)"
       id="path4444"
       inkscape:connector-curvature="0"
       sodipodi:nodetypes="cccccssccssccssccccssccccccccccccccccccccc" />
    <path
       style="fill:none;fill-opacity:1;fill-rule:evenodd;stroke:#000000;stroke-width:3.99999952;stroke-linecap:butt;stroke-linejoin:miter;stroke-miterlimit:4;stroke-dasharray:none;stroke-opacity:1"
       d="m 547.87472,259.53429 c 36.78571,-7.67857 52.32143,11.78572 52.32143,11.78572"
       id="path4446"
       inkscape:connector-curvature="0"
       sodipodi:nodetypes="cc" />
    <path
       style="fill:none;fill-opacity:1;fill-rule:evenodd;stroke:#000000;stroke-width:3.99999952;stroke-linecap:round;stroke-linejoin:miter;stroke-miterlimit:4;stroke-dasharray:none;stroke-opacity:1"
       d="m 558.589,196.67715 c 0.71429,14.46428 8.75001,20.35714 8.75001,20.35714"
       id="path4448"
       inkscape:connector-curvature="0"
       sodipodi:nodetypes="cc" />
    <path
       style="fill:none;fill-opacity:1;fill-rule:evenodd;stroke:#000000;stroke-width:3.99999952;stroke-linecap:round;stroke-linejoin:miter;stroke-miterlimit:4;stroke-dasharray:none;stroke-opacity:1"
       d="m 604.24201,240.37639 c -5.26786,-8.75 -15.83158,-25.12781 -15.83158,-25.12781"
       id="path4460"
       inkscape:connector-curvature="0"
       sodipodi:nodetypes="cc" />
    <path
       style="fill:none;fill-opacity:1;fill-rule:evenodd;stroke:#000000;stroke-width:3.99999952;stroke-linecap:round;stroke-linejoin:miter;stroke-miterlimit:4;stroke-dasharray:none;stroke-opacity:1"
       d="m 622.06784,237.20625 c 0,0 15.98215,10 23.39286,12.5"
       id="path4464"
       inkscape:connector-curvature="0"
       sodipodi:nodetypes="cc" />
    <path
       style="fill:none;fill-opacity:1;fill-rule:evenodd;stroke:#000000;stroke-width:3.99999952;stroke-linecap:round;stroke-linejoin:round;stroke-miterlimit:4;stroke-dasharray:none;stroke-opacity:1"
       d="m 729.70895,245.08229 c 0,0 -8.83884,-1.89404 -13.13198,-7.82868"
       id="path4468"
       inkscape:connector-curvature="0" />
    <path
       style="fill:none;fill-opacity:1;fill-rule:evenodd;stroke:#000000;stroke-width:3.99999952;stroke-linecap:round;stroke-linejoin:miter;stroke-miterlimit:4;stroke-dasharray:none;stroke-opacity:1"
       d="m 760.89741,164.39635 c 0,0 -30.22692,12.86084 -32.70369,47.98225 -1.26358,17.91792 5.55584,17.17259 8.83883,29.7995"
       id="path4474"
       inkscape:connector-curvature="0"
       sodipodi:nodetypes="csc" />
    <path
       style="fill:none;fill-opacity:1;fill-rule:evenodd;stroke:#000000;stroke-width:3.99999952;stroke-linecap:round;stroke-linejoin:round;stroke-miterlimit:4;stroke-dasharray:none;stroke-opacity:1"
       d="m 745.87139,208.08545 c 0.25254,-0.50508 7.82868,-13.13198 13.51079,-15.40483"
       id="path4478"
       inkscape:connector-curvature="0" />
    <path
       style="fill:none;fill-opacity:1;fill-rule:evenodd;stroke:#000000;stroke-width:3.99999952;stroke-linecap:round;stroke-linejoin:round;stroke-miterlimit:4;stroke-dasharray:none;stroke-opacity:1"
       d="m 782.86823,200.0697 c 0.88388,0.12627 14.80153,4.84967 18.39319,12.91218"
       id="path4486"
       inkscape:connector-curvature="0"
       sodipodi:nodetypes="cc" />
    <path
       style="fill:none;fill-opacity:1;fill-rule:evenodd;stroke:#000000;stroke-width:3.99999952;stroke-linecap:round;stroke-linejoin:round;stroke-miterlimit:4;stroke-dasharray:none;stroke-opacity:1"
       d="m 777.43866,223.86908 c 0.75761,0 11.99556,-3.15672 20.83439,6.9448"
       id="path4490"
       inkscape:connector-curvature="0" />
    <path
       style="fill:none;fill-opacity:1;fill-rule:evenodd;stroke:#000000;stroke-width:3.99999952;stroke-linecap:round;stroke-linejoin:round;stroke-miterlimit:4;stroke-dasharray:none;stroke-opacity:1"
       d="m 747.76542,256.82531 c 0.50508,-0.37881 10.10153,-12.12183 19.44544,-14.77348"
       id="path4492"
       inkscape:connector-curvature="0" />
    <path
       style="fill:none;fill-opacity:1;fill-rule:evenodd;stroke:#000000;stroke-width:3.99999952;stroke-linecap:round;stroke-linejoin:round;stroke-miterlimit:4;stroke-dasharray:none;stroke-opacity:1"
       d="m 814.47775,244.74524 c 0,0 9.09137,5.68211 14.77348,15.53109"
       id="path4500"
       inkscape:connector-curvature="0"
       sodipodi:nodetypes="cc" />
    <path
       style="fill:none;fill-opacity:1;fill-rule:evenodd;stroke:#000000;stroke-width:3.99999952;stroke-linecap:round;stroke-linejoin:round;stroke-miterlimit:4;stroke-dasharray:none;stroke-opacity:1"
       d="m 823.90925,290.94137 c 0,0 11.5824,-7.33258 22.57678,-4.01894"
       id="path4506"
       inkscape:connector-curvature="0"
       sodipodi:nodetypes="cc" />
    <path
       style="fill:none;fill-opacity:1;fill-rule:evenodd;stroke:#000000;stroke-width:3.99999952;stroke-linecap:round;stroke-linejoin:round;stroke-miterlimit:4;stroke-dasharray:none;stroke-opacity:1"
       d="m 846.78073,236.05344 c 0,0 2.94622,18.16105 -2.48306,23.35935"
       id="path4510"
       inkscape:connector-curvature="0"
       sodipodi:nodetypes="cc" />
    <path
       style="fill:none;fill-opacity:1;fill-rule:evenodd;stroke:#000000;stroke-width:3.99999952;stroke-linecap:round;stroke-linejoin:round;stroke-miterlimit:4;stroke-dasharray:none;stroke-opacity:1"
       d="m 809.38473,306.82786 c 0,0 36.49176,-4.67195 66.92261,7.19734"
       id="path4520"
       inkscape:connector-curvature="0" />
    <path
       style="fill:none;fill-opacity:1;fill-rule:evenodd;stroke:#000000;stroke-width:3.99999952;stroke-linecap:butt;stroke-linejoin:miter;stroke-miterlimit:4;stroke-dasharray:none;stroke-opacity:1"
       d="m 651.42213,406.8961 c 40.53236,-18.05647 81.88549,25.25381 81.88549,25.25381"
       id="path4522"
       inkscape:connector-curvature="0"
       sodipodi:nodetypes="cc" />
    <path
       style="fill:none;fill-opacity:1;fill-rule:evenodd;stroke:#000000;stroke-width:3.99999952;stroke-linecap:round;stroke-linejoin:miter;stroke-miterlimit:4;stroke-dasharray:none;stroke-opacity:1"
       d="m 767.21909,480.06552 c 2.56685,0.96234 3.61924,3.91774 3.61924,3.91774"
       id="path4524"
       inkscape:connector-curvature="0"
       sodipodi:nodetypes="cc" />
    <path
       sodipodi:nodetypes="cc"
       inkscape:connector-curvature="0"
       id="path4526"
       d="m 752.82441,460.30441 c 4.20835,1.27801 4.25059,4.54908 4.25059,4.54908"
       style="fill:none;fill-opacity:1;fill-rule:evenodd;stroke:#000000;stroke-width:3.99999952;stroke-linecap:round;stroke-linejoin:miter;stroke-miterlimit:4;stroke-dasharray:none;stroke-opacity:1" />
    <path
       style="fill:none;fill-opacity:1;fill-rule:evenodd;stroke:#000000;stroke-width:3.99999952;stroke-linecap:round;stroke-linejoin:miter;stroke-miterlimit:4;stroke-dasharray:none;stroke-opacity:1"
       d="m 761.97892,471.73176 c 2.56685,0.96234 2.73536,3.28639 2.73536,3.28639"
       id="path4528"
       inkscape:connector-curvature="0"
       sodipodi:nodetypes="cc" />
    <path
       style="fill:none;fill-opacity:1;fill-rule:evenodd;stroke:#000000;stroke-width:3.99999952;stroke-linecap:round;stroke-linejoin:miter;stroke-miterlimit:4;stroke-dasharray:none;stroke-opacity:1"
       d="M 688.67149,705.01737 745.99766,523.37931"
       id="path4530"
       inkscape:connector-curvature="0"
       sodipodi:nodetypes="cc" />
    <path
       style="fill:none;fill-opacity:1;fill-rule:evenodd;stroke:#000000;stroke-width:3.99999952;stroke-linecap:round;stroke-linejoin:round;stroke-miterlimit:4;stroke-dasharray:none;stroke-opacity:1"
       d="M 729.34283,739.82509 766.70578,717.3286"
       id="path4534"
       inkscape:connector-curvature="0"
       sodipodi:nodetypes="cc" />
    <path
       style="fill:none;fill-opacity:1;fill-rule:evenodd;stroke:#000000;stroke-width:3.99999952;stroke-linecap:round;stroke-linejoin:round;stroke-miterlimit:4;stroke-dasharray:none;stroke-opacity:1"
       d="m 736.65374,723.01071 17.67768,-7.70241"
       id="path4536"
       inkscape:connector-curvature="0"
       sodipodi:nodetypes="cc" />
    <path
       style="fill:none;fill-opacity:1;fill-rule:evenodd;stroke:#000000;stroke-width:3.99999952;stroke-linecap:butt;stroke-linejoin:miter;stroke-miterlimit:4;stroke-dasharray:none;stroke-opacity:1"
       d="m 724.53192,708.23723 8.83883,-2.27284"
       id="path4538"
       inkscape:connector-curvature="0" />
    <path
       style="fill:none;fill-opacity:1;fill-rule:evenodd;stroke:#000000;stroke-width:3.99999952;stroke-linecap:butt;stroke-linejoin:miter;stroke-miterlimit:4;stroke-dasharray:none;stroke-opacity:1"
       d="m 726.29968,699.90347 10.6066,-2.0203"
       id="path4540"
       inkscape:connector-curvature="0" />
    <path
       style="fill:none;fill-opacity:1;fill-rule:evenodd;stroke:#000000;stroke-width:3.99999952;stroke-linecap:butt;stroke-linejoin:miter;stroke-miterlimit:4;stroke-dasharray:none;stroke-opacity:1"
       d="m 629.95639,785.8296 11.93243,-15.5943"
       id="path4544"
       inkscape:connector-curvature="0"
       sodipodi:nodetypes="cc" />
    <path
       style="fill:none;fill-opacity:1;fill-rule:evenodd;stroke:#000000;stroke-width:3.99999952;stroke-linecap:round;stroke-linejoin:miter;stroke-miterlimit:4;stroke-dasharray:none;stroke-opacity:1"
       d="m 637.15372,762.78542 4.48255,-5.68202"
       id="path4546"
       inkscape:connector-curvature="0"
       sodipodi:nodetypes="cc" />
    <path
       style="fill:none;fill-opacity:1;fill-rule:evenodd;stroke:#000000;stroke-width:3.99999952;stroke-linecap:butt;stroke-linejoin:miter;stroke-miterlimit:4;stroke-dasharray:none;stroke-opacity:1"
       d="m 723.39549,485.43546 -22.60216,45.52 c -1.26269,2.27284 -1.68267,6.99204 -3.03046,10.2278 -1.76529,4.2381 -4.30745,6.42368 -7.3236,11.23794 -1.87443,2.99189 -10.98541,46.46701 -10.98541,46.46701"
       id="path4550"
       inkscape:connector-curvature="0"
       sodipodi:nodetypes="ccssc" />
    <path
       style="fill:none;fill-opacity:1;fill-rule:evenodd;stroke:#000000;stroke-width:3.99999952;stroke-linecap:butt;stroke-linejoin:miter;stroke-miterlimit:4;stroke-dasharray:none;stroke-opacity:1"
       d="m 694.39231,425.51643 c 0,0 0.0893,-3.74999 -1.16072,-4.19642 l -32.76785,-7.94643 c -6.07143,5.44643 -7.05357,12.67858 -5.35715,21.25 l 33.21429,8.66072 c 1.25,0.17857 3.30356,-2.76787 3.30356,-2.76787"
       id="path4552"
       inkscape:connector-curvature="0"
       sodipodi:nodetypes="cccccc" />
    <path
       style="fill:none;fill-opacity:1;fill-rule:evenodd;stroke:#000000;stroke-width:3.99999952;stroke-linecap:butt;stroke-linejoin:miter;stroke-miterlimit:4;stroke-dasharray:none;stroke-opacity:1"
       d="m 693.05329,421.32001 c -10.17857,9.10714 -4.73214,21.875 -4.73214,21.875"
       id="path4554"
       inkscape:connector-curvature="0"
       sodipodi:nodetypes="cc" />
    <path
       style="fill:none;fill-opacity:1;fill-rule:evenodd;stroke:#000000;stroke-width:3.99999952;stroke-linecap:round;stroke-linejoin:round;stroke-miterlimit:4;stroke-dasharray:none;stroke-opacity:1"
       d="m 670.20689,348.74285 c 0,0 50.39202,6.01368 91.64202,-18.98632"
       id="path4556"
       inkscape:connector-curvature="0"
       sodipodi:nodetypes="cc" />
    <path
       style="fill:none;fill-opacity:1;fill-rule:evenodd;stroke:#000000;stroke-width:3.99999952;stroke-linecap:round;stroke-linejoin:round;stroke-miterlimit:4;stroke-dasharray:none;stroke-opacity:1"
       d="m 680.73186,290.24858 c 13.3935,9.75335 41.60715,3.21429 41.60715,3.21429"
       id="path4558"
       inkscape:connector-curvature="0"
       sodipodi:nodetypes="cc" />
    <path
       style="fill:none;fill-opacity:1;fill-rule:evenodd;stroke:#000000;stroke-width:3.99999952;stroke-linecap:round;stroke-linejoin:round;stroke-miterlimit:4;stroke-dasharray:none;stroke-opacity:1"
       d="m 685.99972,332.92715 c 15,4.28571 25.71429,1.25 25.71429,1.25"
       id="path4566"
       inkscape:connector-curvature="0"
       sodipodi:nodetypes="cc" />
    <path
       style="fill:none;fill-opacity:1;fill-rule:evenodd;stroke:#000000;stroke-width:3.99999952;stroke-linecap:round;stroke-linejoin:round;stroke-miterlimit:4;stroke-dasharray:none;stroke-opacity:1"
       d="m 666.95219,384.5342 c 0,0 18.9577,-6.57711 28.54079,3.1845"
       id="path4570"
       inkscape:connector-curvature="0"
       sodipodi:nodetypes="cc" />
    <path
       style="fill:none;fill-opacity:1;fill-rule:evenodd;stroke:#000000;stroke-width:3.99999952;stroke-linecap:round;stroke-linejoin:round;stroke-miterlimit:4;stroke-dasharray:none;stroke-opacity:1"
       d="m 666.89293,366.26035 c 0,0 19.76157,-6.87475 30.47586,0.62525"
       id="path4572"
       inkscape:connector-curvature="0"
       sodipodi:nodetypes="cc" />
    <path
       style="fill:none;fill-opacity:1;fill-rule:evenodd;stroke:#000000;stroke-width:3.99999952;stroke-linecap:round;stroke-linejoin:round;stroke-miterlimit:4;stroke-dasharray:none;stroke-opacity:1"
       d="m 747.33901,418.37358 c 0,0 -4.61293,-32.20116 -27.14176,-33.21338"
       id="path4578"
       inkscape:connector-curvature="0"
       sodipodi:nodetypes="cc" />
    <path
       style="fill:none;fill-opacity:1;fill-rule:evenodd;stroke:#000000;stroke-width:3.99999952;stroke-linecap:round;stroke-linejoin:round;stroke-miterlimit:4;stroke-dasharray:none;stroke-opacity:1"
       d="m 754.92829,374.44501 c 0,0 -5.26786,-10.17858 -15.26785,-12.5"
       id="path4582"
       inkscape:connector-curvature="0"
       sodipodi:nodetypes="cc" />
    <path
       style="fill:none;fill-opacity:1;fill-rule:evenodd;stroke:#000000;stroke-width:3.99999952;stroke-linecap:round;stroke-linejoin:round;stroke-miterlimit:4;stroke-dasharray:none;stroke-opacity:1"
       d="m 817.07115,329.62358 c 6.07143,-6.96428 14.64286,-8.83928 20.44643,-8.48214"
       id="path4584"
       inkscape:connector-curvature="0"
       sodipodi:nodetypes="cc" />
    <path
       style="fill:none;fill-opacity:1;fill-rule:evenodd;stroke:#000000;stroke-width:3.99999952;stroke-linecap:round;stroke-linejoin:round;stroke-miterlimit:4;stroke-dasharray:none;stroke-opacity:1"
       d="m 854.57115,320.33786 c -0.73082,9.95371 8.86574,15.3803 12.97288,18.5053"
       id="path4592"
       inkscape:connector-curvature="0"
       sodipodi:nodetypes="cc" />
    <path
       style="fill:none;fill-opacity:1;fill-rule:evenodd;stroke:#000000;stroke-width:3.99999952;stroke-linecap:round;stroke-linejoin:round;stroke-miterlimit:4;stroke-dasharray:none;stroke-opacity:1"
       d="m 853.19903,373.57213 c 0,0 -0.86971,21.10449 -6.70305,31.52446"
       id="path4594"
       inkscape:connector-curvature="0"
       sodipodi:nodetypes="cc" />
    <path
       style="fill:none;fill-opacity:1;fill-rule:evenodd;stroke:#000000;stroke-width:3.99999952;stroke-linecap:round;stroke-linejoin:round;stroke-miterlimit:4;stroke-dasharray:none;stroke-opacity:1"
       d="m 873.11943,376.32001 c 0,0 0.19345,-15.60925 -8.47553,-19.42461"
       id="path4596"
       inkscape:connector-curvature="0"
       sodipodi:nodetypes="cc" />
    <path
       style="fill:none;fill-opacity:1;fill-rule:evenodd;stroke:#000000;stroke-width:3.99999952;stroke-linecap:round;stroke-linejoin:round;stroke-miterlimit:4;stroke-dasharray:none;stroke-opacity:1"
       d="m 614.56844,74.026996 c 0,0 -27.87311,-27.745425 -39.72951,-25.028458 -11.85639,2.716968 2.98164,44.236729 5.99879,53.147162 0,0 -12.98931,20.82145 -9.59645,49.75002 3.57143,21.96428 38.81711,56.44735 69.19545,60.60915 53.63742,0.90075 99.84633,-40.02613 101.01516,-81.82241 -0.25031,-12.31388 -11.86929,-37.880715 -11.86929,-37.880715 -2.67892,-8.880615 1.2605,-52.730498 -10.27939,-49.696063 -13.85688,3.643692 -35,39.821423 -35,39.821423"
       id="path4602"
       inkscape:connector-curvature="0"
       sodipodi:nodetypes="czcccccsc" />
    <path
       style="fill:none;fill-opacity:1;fill-rule:evenodd;stroke:#000000;stroke-width:3.99999952;stroke-linecap:round;stroke-linejoin:miter;stroke-miterlimit:4;stroke-dasharray:none;stroke-opacity:1"
       d="M 600.0968,83.919357 C 626.49781,59.554422 689.94886,73.820003 689.94886,73.820003"
       id="path4604"
       inkscape:connector-curvature="0"
       sodipodi:nodetypes="cc" />
    <path
       style="fill:#000000;fill-opacity:1;fill-rule:evenodd;stroke:#000000;stroke-width:1px;stroke-linecap:butt;stroke-linejoin:miter;stroke-opacity:1"
       d="m 620.90858,164.39901 c 5.0459,-3.55071 13.53431,-3.27875 18.78064,0.20023 0.96347,0.63891 0.24454,3.6721 -0.86219,4.00625 -3.29163,0.99385 -5.08528,2.86025 -6.2571,4.81029 -0.45023,0.74925 -1.60467,1.95986 -2.47833,1.9878 -0.9493,0.0304 -1.84331,-1.21466 -2.51083,-1.89031 -2.27588,-2.30359 -3.08195,-3.47807 -5.97767,-4.6317 -1.07171,-0.42697 -1.63799,-3.81866 -0.69452,-4.48256 z"
       id="path4281"
       inkscape:connector-curvature="0"
       sodipodi:nodetypes="ssssssss" />
    <path
       style="fill:none;fill-rule:evenodd;stroke:#000000;stroke-width:3.99999952;stroke-linecap:round;stroke-linejoin:round;stroke-miterlimit:4;stroke-dasharray:none;stroke-opacity:1"
       d="m 621.98186,184.35568 c 9.64286,-4.64286 19.64286,-0.35714 19.64286,-0.35714"
       id="path4283"
       inkscape:connector-curvature="0"
       sodipodi:nodetypes="cc" />
    <path
       style="fill:none;fill-rule:evenodd;stroke:#000000;stroke-width:3.99999952;stroke-linecap:round;stroke-linejoin:round;stroke-miterlimit:4;stroke-dasharray:none;stroke-opacity:1"
       d="m 646.30827,166.9007 c 34.85026,-4.04061 60.0409,9.23864 60.0409,9.23864"
       id="path4285"
       inkscape:connector-curvature="0"
       sodipodi:nodetypes="cc" />
    <path
       style="fill:none;fill-rule:evenodd;stroke:#000000;stroke-width:3.99999952;stroke-linecap:round;stroke-linejoin:round;stroke-miterlimit:4;stroke-dasharray:none;stroke-opacity:1"
       d="m 645.74002,174.28749 c 35.35533,2.77792 47.22463,17.50921 47.22463,17.50921"
       id="path4287"
       inkscape:connector-curvature="0"
       sodipodi:nodetypes="cc" />
    <path
       style="fill:none;fill-rule:evenodd;stroke:#000000;stroke-width:3.99999952;stroke-linecap:round;stroke-linejoin:round;stroke-miterlimit:4;stroke-dasharray:none;stroke-opacity:1"
       d="m 612.40498,168.56319 c -24.74873,1.76777 -43.18402,13.13199 -43.18402,13.13199"
       id="path4289"
       inkscape:connector-curvature="0"
       sodipodi:nodetypes="cc" />
    <path
       style="fill:none;fill-rule:evenodd;stroke:#000000;stroke-width:3.99999952;stroke-linecap:round;stroke-linejoin:round;stroke-miterlimit:4;stroke-dasharray:none;stroke-opacity:1"
       d="m 615.43544,174.37157 c -24.24366,5.80838 -41.66879,22.22336 -41.66879,22.22336"
       id="path4291"
       inkscape:connector-curvature="0"
       sodipodi:nodetypes="cc" />
    <path
       style="fill:none;fill-rule:evenodd;stroke:#000000;stroke-width:3.99999952;stroke-linecap:round;stroke-linejoin:round;stroke-miterlimit:4;stroke-dasharray:none;stroke-opacity:1"
       d="m 619.48186,580.06997 c -5.17857,7.14286 -8.21428,100.44643 -8.21428,100.44643"
       id="path4293"
       inkscape:connector-curvature="0"
       sodipodi:nodetypes="cc" />
    <path
       style="fill:none;fill-rule:evenodd;stroke:#000000;stroke-width:3.99999952;stroke-linecap:round;stroke-linejoin:round;stroke-miterlimit:4;stroke-dasharray:none;stroke-opacity:1"
       d="m 664.90399,660.90681 -13.03045,36.60188"
       id="path4295"
       inkscape:connector-curvature="0"
       sodipodi:nodetypes="cc" />
    <path
       transform="translate(0,8.3066228e-5)"
       style="display:inline;fill:none;fill-opacity:1;fill-rule:evenodd;stroke:#000000;stroke-width:3.99999952;stroke-linecap:butt;stroke-linejoin:miter;stroke-miterlimit:4;stroke-dasharray:none;stroke-opacity:1"
       d="m 546.99757,384.23073 c 0,0 4.79823,6.81852 3.53554,21.46573 -1.38896,7.19734 -3.40926,8.83884 -5.6821,12.62691 0,0 -1.76778,12.37437 -4.04062,16.03617 -7.70242,9.97526 -10.65614,2.37678 -10.98541,1.38896 -0.94702,-2.84105 2.02031,-16.66751 2.52538,-17.67767 0.50508,-1.01015 8.08123,-16.54124 6.566,-17.9302 -4.9339,-5.56948 -13.35596,-8.5206 -18.18275,-3.78807 -2.94783,3.23519 -7.07107,29.29442 -7.07107,29.29442 0,0 -11.11168,19.1929 -11.61675,20.70812 -0.50508,1.51523 -2.52539,17.42513 -5.3033,22.98098 -2.27285,5.05076 -5.93465,10.6066 -5.93465,10.6066 -1.89403,2.14657 3.53554,4.29315 6.69226,1.38896 0,0 5.55584,-5.17703 8.83884,-11.99556 l 7.70241,-25.19068 18.43528,-26.26397"
       id="path4261"
       inkscape:connector-curvature="0"
       sodipodi:nodetypes="ccccsccccscccccc" />
    <path
       style="fill:none;fill-rule:evenodd;stroke:#000000;stroke-width:3.99999952;stroke-linecap:butt;stroke-linejoin:miter;stroke-miterlimit:4;stroke-dasharray:none;stroke-opacity:1"
       d="m 748.21428,427.85713 c 25.50635,5.55584 30.71429,25.35714 30.71429,25.35714"
       id="path4483"
       inkscape:connector-curvature="0"
       sodipodi:nodetypes="cc" />
    <path
       style="fill:none;fill-rule:evenodd;stroke:#000000;stroke-width:5.99999905;stroke-linecap:round;stroke-linejoin:round;stroke-miterlimit:4;stroke-dasharray:none;stroke-opacity:1"
       d="m 757.10933,445.34499 c 11.05556,3.11932 17.25667,19.36107 17.25667,19.36107"
       id="path4485"
       inkscape:connector-curvature="0"
       sodipodi:nodetypes="cc" />
    <path
       style="fill:none;fill-rule:evenodd;stroke:#000000;stroke-width:3.99999952;stroke-linecap:butt;stroke-linejoin:miter;stroke-miterlimit:4;stroke-dasharray:none;stroke-opacity:1"
       d="m 522.24886,379.68508 c 16.92005,-2.27284 27.52666,6.81853 27.52666,6.81853"
       id="path4487"
       inkscape:connector-curvature="0"
       sodipodi:nodetypes="cc" />
  </g>
  <g
     inkscape:groupmode="layer"
     id="layer7"
     inkscape:label="glasses" />
</svg>
