<?xml version="1.0" encoding="UTF-8" standalone="no"?>
<!-- Created with Inkscape (http://www.inkscape.org/) -->

<svg
   xmlns:dc="http://purl.org/dc/elements/1.1/"
   xmlns:cc="http://creativecommons.org/ns#"
   xmlns:rdf="http://www.w3.org/1999/02/22-rdf-syntax-ns#"
   xmlns:svg="http://www.w3.org/2000/svg"
   xmlns="http://www.w3.org/2000/svg"
   xmlns:sodipodi="http://sodipodi.sourceforge.net/DTD/sodipodi-0.dtd"
   xmlns:inkscape="http://www.inkscape.org/namespaces/inkscape"
   sodipodi:docname="cat-seo.svg"
   inkscape:version="0.91 r13725"
   version="1.1"
   id="svg2"
   height="1052.3622047"
   width="744.09448819">
  <sodipodi:namedview
     id="base"
     pagecolor="#233539"
     bordercolor="#666666"
     borderopacity="1.0"
     inkscape:pageopacity="0"
     inkscape:pageshadow="2"
     inkscape:zoom="0.5"
     inkscape:cx="367.06708"
     inkscape:cy="572.91459"
     inkscape:document-units="px"
     inkscape:current-layer="layer1"
     showgrid="false"
     inkscape:window-width="1858"
     inkscape:window-height="1058"
     inkscape:window-x="54"
     inkscape:window-y="-8"
     inkscape:window-maximized="1" />
  <defs
     id="defs4">
    <inkscape:perspective
       sodipodi:type="inkscape:persp3d"
       inkscape:vp_x="78.810347 : 397.47004 : 1"
       inkscape:vp_y="-345.0596 : 938.58077 : 0"
       inkscape:vp_z="777.20312 : 654.22698 : 1"
       inkscape:persp3d-origin="488.52801 : 361.22736 : 1"
       id="perspective3814" />
    <filter
       color-interpolation-filters="sRGB"
       inkscape:menu-tooltip="Glow of object's own color at the edges"
       inkscape:menu="Shadows and Glows"
       inkscape:label="Glow"
       id="filter4065">
      <feGaussianBlur
         result="result91"
         stdDeviation="5"
         id="feGaussianBlur4067" />
      <feComposite
         operator="over"
         in="SourceGraphic"
         in2="result91"
         id="feComposite4069" />
    </filter>
  </defs>
  <metadata
     id="metadata7">
    <rdf:RDF>
      <cc:Work
         rdf:about="">
        <dc:format>image/svg+xml</dc:format>
        <dc:type
           rdf:resource="http://purl.org/dc/dcmitype/StillImage" />
        <dc:title />
      </cc:Work>
    </rdf:RDF>
  </metadata>
  <g
     inkscape:label="Layer 1"
     inkscape:groupmode="layer"
     id="layer1"
     style="opacity:1">
    <g
       id="g3846"
       style="fill:#ffffff;fill-opacity:1"
       transform="matrix(0.900018,0,0,0.900018,322.95931,291.30497)" />
    <g
       style="fill:#ffffff;fill-opacity:1"
       id="g3856"
       transform="matrix(0.900018,0,0,0.900018,322.95931,291.30497)" />
    <g
       style="fill:#ffffff;fill-opacity:1"
       id="g3858"
       transform="matrix(0.900018,0,0,0.900018,322.95931,291.30497)" />
    <g
       style="fill:#ffffff;fill-opacity:1"
       id="g3860"
       transform="matrix(0.900018,0,0,0.900018,322.95931,291.30497)" />
    <g
       style="fill:#ffffff;fill-opacity:1"
       id="g3862"
       transform="matrix(0.900018,0,0,0.900018,322.95931,291.30497)" />
    <g
       style="fill:#ffffff;fill-opacity:1"
       id="g3864"
       transform="matrix(0.900018,0,0,0.900018,322.95931,291.30497)" />
    <g
       style="fill:#ffffff;fill-opacity:1"
       id="g3866"
       transform="matrix(0.900018,0,0,0.900018,322.95931,291.30497)" />
    <g
       style="fill:#ffffff;fill-opacity:1"
       id="g3868"
       transform="matrix(0.900018,0,0,0.900018,322.95931,291.30497)" />
    <g
       style="fill:#ffffff;fill-opacity:1"
       id="g3870"
       transform="matrix(0.900018,0,0,0.900018,322.95931,291.30497)" />
    <g
       style="fill:#ffffff;fill-opacity:1"
       id="g3872"
       transform="matrix(0.900018,0,0,0.900018,322.95931,291.30497)" />
    <g
       style="fill:#ffffff;fill-opacity:1"
       id="g3874"
       transform="matrix(0.900018,0,0,0.900018,322.95931,291.30497)" />
    <g
       style="fill:#ffffff;fill-opacity:1"
       id="g3876"
       transform="matrix(0.900018,0,0,0.900018,322.95931,291.30497)" />
    <g
       style="fill:#ffffff;fill-opacity:1"
       id="g3878"
       transform="matrix(0.900018,0,0,0.900018,322.95931,291.30497)" />
    <g
       style="fill:#ffffff;fill-opacity:1"
       id="g3880"
       transform="matrix(0.900018,0,0,0.900018,322.95931,291.30497)" />
    <g
       style="fill:#ffffff;fill-opacity:1"
       id="g3882"
       transform="matrix(0.900018,0,0,0.900018,322.95931,291.30497)" />
    <g
       style="fill:#ffffff;fill-opacity:1"
       id="g3884"
       transform="matrix(0.900018,0,0,0.900018,322.95931,291.30497)" />
    <path
       style="color:#000000;font-style:normal;font-variant:normal;font-weight:normal;font-stretch:normal;font-size:medium;line-height:normal;font-family:sans-serif;text-indent:0;text-align:start;text-decoration:none;text-decoration-line:none;text-decoration-style:solid;text-decoration-color:#000000;letter-spacing:normal;word-spacing:normal;text-transform:none;direction:ltr;block-progression:tb;writing-mode:lr-tb;baseline-shift:baseline;text-anchor:start;white-space:normal;clip-rule:nonzero;display:inline;overflow:visible;visibility:visible;opacity:1;isolation:auto;mix-blend-mode:normal;color-interpolation:sRGB;color-interpolation-filters:linearRGB;solid-color:#000000;solid-opacity:1;fill:#1c1c1c;fill-opacity:1;fill-rule:evenodd;stroke:none;stroke-width:10;stroke-linecap:butt;stroke-linejoin:miter;stroke-miterlimit:4;stroke-dasharray:none;stroke-dashoffset:0;stroke-opacity:1;color-rendering:auto;image-rendering:auto;shape-rendering:auto;text-rendering:auto;enable-background:accumulate"
       d="m 676.00161,374.04225 33.98533,160.58069 3.45828,-0.73014 A 347.5,236.36884 0 0 0 719.386,496.95033 L 701.86896,414.1808 a 347.5,236.36884 0 0 0 -25.86735,-40.13855 z"
       id="path4301"
       inkscape:connector-curvature="0" />
    <path
       style="opacity:1;fill:#1c1c1c;fill-opacity:1;stroke:none;stroke-width:10;stroke-linecap:round;stroke-linejoin:round;stroke-miterlimit:4;stroke-dasharray:none;stroke-dashoffset:0;stroke-opacity:1"
       d="M 659.3707,355.61916 376.45943,357.37153 26.762325,464.88001 A 347.5,236.36884 0 0 0 25,488.60004 347.5,236.36884 0 0 0 61.119369,593.25759 l 49.796471,-0.38167 596.01774,-40.9616 A 347.5,236.36884 0 0 0 720,488.60004 347.5,236.36884 0 0 0 659.3707,355.61916 Z"
       id="path4303"
       inkscape:connector-curvature="0" />
    <path
       sodipodi:nodetypes="ccccc"
       inkscape:connector-curvature="0"
       id="path4208"
       d="m 374.83185,418.75437 -9.10205,-32.37908 c 0,0 -3.75796,-17.2058 -11.9695,-2.92862 L 325.08,428.791 Z"
       style="opacity:1;fill:#80a8b1;fill-opacity:1;stroke:#aac5cb;stroke-width:1.69926643px;stroke-linecap:butt;stroke-linejoin:miter;stroke-opacity:1" />
    <path
       style="opacity:1;fill:#80a8b1;fill-opacity:1;stroke:#aac5cb;stroke-width:1.69926643px;stroke-linecap:butt;stroke-linejoin:miter;stroke-opacity:1"
       d="m 421.5339,415.63715 21.31414,-26.01844 c 0,0 10.33769,-14.25813 12.14003,2.11316 l 8.10676,53.03725 z"
       id="path3804"
       inkscape:connector-curvature="0"
       sodipodi:nodetypes="ccccc" />
    <rect
       transform="matrix(0.95403722,0.29968814,-0.29968814,0.95403722,0,0)"
       ry="6.7099509"
       y="367.77142"
       x="420.8374"
       height="13.419902"
       width="24.663605"
       id="rect4295"
       style="opacity:1;fill:none;fill-opacity:1;stroke:#ffff2b;stroke-width:3.39853311;stroke-linecap:round;stroke-linejoin:round;stroke-miterlimit:4;stroke-dasharray:none;stroke-dashoffset:0;stroke-opacity:1" />
    <path
       style="opacity:1;fill:#1c1c1c;fill-opacity:1;fill-rule:evenodd;stroke:none;stroke-width:1px;stroke-linecap:butt;stroke-linejoin:miter;stroke-opacity:1"
       d="m 296.23214,346.96352 c -15.8662,-0.14928 -39.93259,2.27243 -75.54767,8.71206 -51.1086,9.24103 -112.97268,28.77266 -173.806414,51.22359 A 347.5,236.36884 0 0 0 25.640544,479.89794 C 154.47901,432.51464 304.96743,380.7995 304.96743,380.7995 c 0,0 47.9297,-33.30285 -8.73529,-33.83598 z"
       id="path4269"
       inkscape:connector-curvature="0" />
    <path
       style="opacity:1;fill:#faa600;fill-opacity:1;fill-rule:evenodd;stroke:none;stroke-width:1px;stroke-linecap:butt;stroke-linejoin:miter;stroke-opacity:1"
       d="m 455.11023,337.2392 c -115.6557,0.23336 -256.09472,18.90102 -232.99532,18.90102 24.63937,0 75.61736,22.9401 75.61736,22.9401 0,0 229.40098,-11.04523 232.79951,-11.04523 1.82548,0 76.72389,5.96495 150.41163,11.86499 a 347.5,236.36884 0 0 0 -28.67179,-31.03153 c -57.06291,-5.2899 -122.40082,-10.30562 -174.4171,-11.42026 -7.43429,-0.1593 -15.0339,-0.22464 -22.74429,-0.20909 z"
       id="path4267"
       inkscape:connector-curvature="0" />
    <path
       sodipodi:nodetypes="ccccc"
       inkscape:connector-curvature="0"
       id="path4206"
       d="m 426.21113,415.45066 16.50552,-20.14849 c 0,0 8.00545,-11.04141 9.40116,1.63641 l 6.27782,41.07169 z"
       style="opacity:1;fill:#709da7;fill-opacity:1;stroke:none;stroke-width:0.77439326px;stroke-linecap:butt;stroke-linejoin:miter;stroke-opacity:1" />
    <path
       style="opacity:1;fill:#709da7;fill-opacity:1;stroke:none;stroke-width:0.77439326px;stroke-linecap:butt;stroke-linejoin:miter;stroke-opacity:1"
       d="m 370.62129,416.70925 -7.04857,-25.0741 c 0,0 -2.91015,-13.32409 -9.26909,-2.26791 l -22.20984,35.11436 z"
       id="path4210"
       inkscape:connector-curvature="0"
       sodipodi:nodetypes="ccccc" />
    <path
       sodipodi:nodetypes="sccs"
       inkscape:connector-curvature="0"
       id="path4923"
       d="M 385.46889,403.94125 C 295.99505,399.98886 281.77594,514.0475 254.00051,655.21261 l 241.85312,0.49476 C 470.87971,401.59416 461.06652,407.28067 385.46889,403.94125 Z"
       style="opacity:1;fill:#81a8b1;fill-opacity:1;stroke:#aac5cb;stroke-width:1.95880806px;stroke-linecap:round;stroke-linejoin:round;stroke-opacity:1" />
    <path
       style="opacity:1;fill:#ffb017;fill-opacity:1;fill-rule:evenodd;stroke:none;stroke-width:1px;stroke-linecap:butt;stroke-linejoin:miter;stroke-opacity:1"
       d="m 477.74167,360.14611 c -24.36583,-0.0445 -47.83832,0.50779 -68.70744,1.94155 -99.80013,6.85649 -241.27022,47.87989 -382.145788,102.2215 A 347.5,236.36884 0 0 0 25,488.60004 347.5,236.36884 0 0 0 25.842996,504.83931 C 54.075141,491.1394 258.28907,394.37722 419.71771,383.20568 c 111.29899,-7.70233 210.51454,-0.35341 267.57141,5.92089 a 347.5,236.36884 0 0 0 -15.58547,-20.18212 c -43.71861,-3.40463 -122.56549,-8.66794 -193.96198,-8.79834 z M 718.9977,502.22404 c -25.05661,3.34419 -165.02,21.98037 -206.15887,26.36851 -45.05861,4.80625 -320.81764,30.03929 -369.48094,28.83774 -28.01274,-0.69167 -72.960189,-4.54724 -106.390009,-7.71308 A 347.5,236.36884 0 0 0 372.5,724.96734 347.5,236.36884 0 0 0 718.9977,502.22404 Z"
       id="path4395"
       inkscape:connector-curvature="0" />
    <path
       style="opacity:1;fill:none;fill-rule:evenodd;stroke:#000000;stroke-width:1.69926655px;stroke-linecap:round;stroke-linejoin:round;stroke-opacity:1"
       d="m 482.94869,454.54685 c -5.85763,-4.20548 -14.56895,-6.75879 -19.67561,-6.75879 -5.10663,0 -20.12616,-0.90116 -20.12616,-0.90116 l -38.45002,-8.33585 -1.20157,4.43075 -19.225,-3.90507 0.90119,-4.50587 -59.47737,-14.11836 c -2.55332,-0.4506 -5.70743,3.82998 -2.92883,6.4584"
       id="path4212"
       inkscape:connector-curvature="0"
       sodipodi:nodetypes="csccccccc" />
    <path
       style="opacity:1;fill:#000000;fill-opacity:1;fill-rule:evenodd;stroke:none;stroke-width:1px;stroke-linecap:butt;stroke-linejoin:miter;stroke-opacity:1"
       d="m 381.03253,456.3954 -41.11824,-9.2219 6.17709,-22.36534 39.8402,9.64791 z"
       id="path4214"
       inkscape:connector-curvature="0"
       sodipodi:nodetypes="ccccc" />
    <path
       sodipodi:nodetypes="ccccc"
       inkscape:connector-curvature="0"
       id="path4216"
       d="m 439.89921,469.536 -41.71509,-8.29613 5.684,-22.71848 40.436,8.75733 z"
       style="opacity:1;fill:#000000;fill-opacity:1;fill-rule:evenodd;stroke:none;stroke-width:1px;stroke-linecap:butt;stroke-linejoin:miter;stroke-opacity:1" />
    <path
       style="opacity:1;fill:#d6e3e6;fill-opacity:1;stroke:none;stroke-width:1;stroke-linecap:round;stroke-linejoin:round;stroke-miterlimit:4;stroke-dasharray:none;stroke-dashoffset:0;stroke-opacity:1"
       d="m 366.12141,429.09993 -22.84084,18.82629 13.49054,3.02619 22.60987,-18.63947 -13.25957,-3.21301 z"
       id="rect4220"
       inkscape:connector-curvature="0" />
    <path
       inkscape:connector-curvature="0"
       id="path4228"
       d="m 425.08557,442.10428 -24.00391,19.7066 6.91836,1.37955 23.83247,-19.61917 z"
       style="opacity:1;fill:#d6e3e6;fill-opacity:1;stroke:none;stroke-width:1;stroke-linecap:round;stroke-linejoin:round;stroke-miterlimit:4;stroke-dasharray:none;stroke-dashoffset:0;stroke-opacity:1"
       sodipodi:nodetypes="ccccc" />
    <path
       sodipodi:nodetypes="ccccc"
       style="opacity:1;fill:#d6e3e6;fill-opacity:1;stroke:none;stroke-width:1;stroke-linecap:round;stroke-linejoin:round;stroke-miterlimit:4;stroke-dasharray:none;stroke-dashoffset:0;stroke-opacity:1"
       d="m 435.81219,444.44077 -24.00391,19.7066 3.40754,0.6098 23.83247,-19.61917 z"
       id="path4230"
       inkscape:connector-curvature="0" />
    <rect
       style="opacity:1;fill:none;fill-opacity:1;stroke:#ffff2b;stroke-width:3.39853311;stroke-linecap:round;stroke-linejoin:round;stroke-miterlimit:4;stroke-dasharray:none;stroke-dashoffset:0;stroke-opacity:1"
       id="rect4297"
       width="24.663605"
       height="13.419902"
       x="281.6915"
       y="603.78387"
       ry="6.7099509"
       transform="matrix(0.94948413,-0.31381506,0.31381506,0.94948413,0,0)" />
    <path
       style="color:#000000;font-style:normal;font-variant:normal;font-weight:normal;font-stretch:normal;font-size:medium;line-height:normal;font-family:sans-serif;text-indent:0;text-align:start;text-decoration:none;text-decoration-line:none;text-decoration-style:solid;text-decoration-color:#000000;letter-spacing:normal;word-spacing:normal;text-transform:none;direction:ltr;block-progression:tb;writing-mode:lr-tb;baseline-shift:baseline;text-anchor:start;white-space:normal;clip-rule:nonzero;display:inline;overflow:visible;visibility:visible;opacity:1;isolation:auto;mix-blend-mode:normal;color-interpolation:sRGB;color-interpolation-filters:linearRGB;solid-color:#000000;solid-opacity:1;fill:#1c1c1c;fill-opacity:1;fill-rule:evenodd;stroke:none;stroke-width:6;stroke-linecap:round;stroke-linejoin:round;stroke-miterlimit:4;stroke-dasharray:none;stroke-dashoffset:0;stroke-opacity:1;color-rendering:auto;image-rendering:auto;shape-rendering:auto;text-rendering:auto;enable-background:accumulate"
       d="m 502.18523,374.09868 c -6.52613,-0.0268 -13.08411,-0.0138 -19.671,0.0432 -14.05203,0.12133 -28.24039,0.43498 -42.55799,0.96247 -154.76532,5.70188 -321.51713,77.25966 -414.428538,123.67142 a 347.5,236.36884 0 0 0 1.131737,10.97555 C 117.97845,463.9222 286.01694,390.97852 440.33127,385.29327 c 14.21951,-0.52389 28.31158,-0.83536 42.26925,-0.95584 73.91334,-0.63806 144.01891,4.15414 209.29521,11.79197 a 347.5,236.36884 0 0 0 -7.30817,-11.1116 C 627.22318,378.56893 566.19244,374.36105 502.18523,374.09868 Z m 217.07134,124.61067 c -13.37318,1.71461 -26.74545,3.43163 -40.64965,5.17413 -159.89081,20.0378 -350.7047,40.69818 -536.46042,46.64354 -31.76182,-0.40789 -72.445667,-3.13345 -106.857971,-5.89765 a 347.5,236.36884 0 0 0 3.985974,10.4943 c 34.951975,2.71779 73.735177,5.23182 102.815577,5.60226 a 5.0983093,5.0983093 0 0 0 0.22901,-0.003 c 186.33564,-5.95593 377.48628,-26.663 537.55565,-46.72318 13.20674,-1.65511 25.8523,-3.28763 38.61849,-4.92523 a 347.5,236.36884 0 0 0 0.76334,-10.36486 z"
       id="path4256"
       inkscape:connector-curvature="0" />
    <path
       style="opacity:1;fill:#81a8b1;fill-opacity:1;fill-rule:evenodd;stroke:#aac5cb;stroke-width:1.69926655px;stroke-linecap:round;stroke-linejoin:round;stroke-opacity:1"
       d="m 468.13307,459.53923 c 0,0 23.36491,48.4291 27.61308,80.71516 4.24817,32.28606 -80.29034,34.41015 -80.29034,34.41015 0,0 -65.29734,-0.0302 -64.02289,-23.39511 1.27445,-23.36492 40.62258,-28.94335 61.47399,-30.13179 20.59072,-1.17358 31.43643,0 31.43643,0 0,0 -12.80708,-2.75726 -15.71822,-18.26711"
       id="path4232"
       inkscape:connector-curvature="0"
       sodipodi:nodetypes="cscsscc" />
    <path
       style="opacity:1;fill:#ffba33;fill-opacity:1;fill-rule:evenodd;stroke:none;stroke-width:1px;stroke-linecap:round;stroke-linejoin:round;stroke-opacity:1"
       d="m 248.13181,520.64992 c 0,-19.21539 -6.98742,-31.88008 -34.50035,-40.17763 -27.51294,-8.29755 -89.74968,12.71847 -97.82378,29.6965 -0.25831,1.86571 0.36469,3.19625 1.0868,4.2813 11.21752,16.85528 26.44135,31.23215 42.32496,43.66675 12.16775,9.52561 39.65717,31.50561 47.53834,30.85885 7.88116,-0.64677 12.30321,-2.30855 18.67546,-4.64505 l -34.33456,-32.70498 c 0,0 34.81602,-3.4845 46.11529,-9.14008 6.49966,-3.25325 10.98836,-11.01302 10.91784,-21.83566 z"
       id="path4258"
       inkscape:connector-curvature="0"
       sodipodi:nodetypes="cscsssccsc" />
    <path
       style="opacity:1;fill:#ffec93;fill-opacity:1;fill-rule:evenodd;stroke:none;stroke-width:1px;stroke-linecap:round;stroke-linejoin:round;stroke-opacity:1"
       d="m 198.53095,478.60357 c -30.53873,0.0411 -75.91055,17.24064 -82.72308,31.56587 -0.0509,0.36791 -0.0415,0.70035 -0.0299,1.02885 l 131.62677,0 c -2.35124,-14.03453 -11.05634,-23.87517 -33.77292,-30.72619 -4.29889,-1.2965 -9.44558,-1.87614 -15.10091,-1.86853 z"
       id="path4262"
       inkscape:connector-curvature="0" />
    <path
       style="color:#000000;font-style:normal;font-variant:normal;font-weight:normal;font-stretch:normal;font-size:medium;line-height:normal;font-family:sans-serif;text-indent:0;text-align:start;text-decoration:none;text-decoration-line:none;text-decoration-style:solid;text-decoration-color:#000000;letter-spacing:normal;word-spacing:normal;text-transform:none;direction:ltr;block-progression:tb;writing-mode:lr-tb;baseline-shift:baseline;text-anchor:start;white-space:normal;clip-rule:nonzero;display:inline;overflow:visible;visibility:visible;opacity:1;isolation:auto;mix-blend-mode:normal;color-interpolation:sRGB;color-interpolation-filters:linearRGB;solid-color:#000000;solid-opacity:1;fill:#000000;fill-opacity:1;fill-rule:evenodd;stroke:none;stroke-width:3;stroke-linecap:round;stroke-linejoin:round;stroke-miterlimit:4;stroke-dasharray:none;stroke-dashoffset:0;stroke-opacity:1;color-rendering:auto;image-rendering:auto;shape-rendering:auto;text-rendering:auto;enable-background:accumulate"
       d="m 127.86868,555.77748 a 2.5491546,2.5491546 0 0 0 -1.96146,0.87619 l -29.312344,32.71088 a 2.5491546,2.5491546 0 0 0 -0.640543,1.46363 l -3.478187,37.26106 a 347.5,236.36884 0 0 0 4.702853,4.47384 l 3.773571,-40.42395 28.75145,-32.08361 a 2.5491546,2.5491546 0 0 0 -1.83534,-4.27804 z"
       id="path4271"
       inkscape:connector-curvature="0" />
    <rect
       style="opacity:1;fill:none;fill-opacity:1;stroke:#ffff2b;stroke-width:3.39853311;stroke-linecap:round;stroke-linejoin:round;stroke-miterlimit:4;stroke-dasharray:none;stroke-dashoffset:0;stroke-opacity:1"
       id="rect4273"
       width="24.663605"
       height="13.419902"
       x="511.68753"
       y="247.59344"
       ry="6.7099509"
       transform="matrix(0.84590333,0.53333625,-0.53333625,0.84590333,0,0)" />
    <rect
       transform="matrix(0.99893433,0.04615421,-0.04615421,0.99893433,0,0)"
       ry="6.7099509"
       y="480.00003"
       x="353.64609"
       height="13.419902"
       width="24.663605"
       id="rect4275"
       style="opacity:1;fill:none;fill-opacity:1;stroke:#ffff2b;stroke-width:3.39853311;stroke-linecap:round;stroke-linejoin:round;stroke-miterlimit:4;stroke-dasharray:none;stroke-dashoffset:0;stroke-opacity:1" />
    <rect
       style="opacity:1;fill:none;fill-opacity:1;stroke:#ffff2b;stroke-width:3.39853311;stroke-linecap:round;stroke-linejoin:round;stroke-miterlimit:4;stroke-dasharray:none;stroke-dashoffset:0;stroke-opacity:1"
       id="rect4277"
       width="24.663605"
       height="13.419902"
       x="371.23688"
       y="497.2782"
       ry="6.7099509"
       transform="matrix(1,8.3276385e-5,-8.3276385e-5,1,0,0)" />
    <rect
       transform="matrix(0.98648791,-0.16383409,0.16383409,0.98648791,0,0)"
       ry="6.7099509"
       y="556.75244"
       x="324.15131"
       height="13.419902"
       width="24.663605"
       id="rect4279"
       style="opacity:1;fill:none;fill-opacity:1;stroke:#ffff2b;stroke-width:3.39853311;stroke-linecap:round;stroke-linejoin:round;stroke-miterlimit:4;stroke-dasharray:none;stroke-dashoffset:0;stroke-opacity:1" />
    <rect
       style="opacity:1;fill:none;fill-opacity:1;stroke:#ffff2b;stroke-width:3.39853311;stroke-linecap:round;stroke-linejoin:round;stroke-miterlimit:4;stroke-dasharray:none;stroke-dashoffset:0;stroke-opacity:1"
       id="rect4281"
       width="24.663605"
       height="13.419902"
       x="281.47708"
       y="600.09253"
       ry="6.7099509"
       transform="matrix(0.95370419,-0.30074628,0.30074628,0.95370419,0,0)" />
    <path
       style="opacity:1;fill:none;fill-rule:evenodd;stroke:#ffff2b;stroke-width:3.39853311;stroke-linecap:round;stroke-linejoin:round;stroke-miterlimit:4;stroke-dasharray:none;stroke-opacity:1"
       d="M 300.46133,489.84276 288.1453,481.43182"
       id="path4283"
       inkscape:connector-curvature="0" />
    <path
       inkscape:connector-curvature="0"
       id="path4285"
       d="m 335.00626,502.75955 -19.8258,-3.60469"
       style="opacity:1;fill:none;fill-rule:evenodd;stroke:#ffff2b;stroke-width:3.39853311;stroke-linecap:round;stroke-linejoin:round;stroke-miterlimit:4;stroke-dasharray:none;stroke-opacity:1"
       sodipodi:nodetypes="cc" />
    <path
       style="opacity:1;fill:none;fill-rule:evenodd;stroke:#ffff2b;stroke-width:3.39853311;stroke-linecap:round;stroke-linejoin:round;stroke-miterlimit:4;stroke-dasharray:none;stroke-opacity:1"
       d="m 374.65783,504.86229 -22.22892,-1.20157"
       id="path4287"
       inkscape:connector-curvature="0"
       sodipodi:nodetypes="cc" />
    <path
       inkscape:connector-curvature="0"
       id="path4289"
       d="m 415.51097,502.75955 -22.52932,1.20155"
       style="opacity:1;fill:none;fill-rule:evenodd;stroke:#ffff2b;stroke-width:3.39853311;stroke-linecap:round;stroke-linejoin:round;stroke-miterlimit:4;stroke-dasharray:none;stroke-opacity:1"
       sodipodi:nodetypes="cc" />
    <path
       style="opacity:1;fill:none;fill-rule:evenodd;stroke:#ffff2b;stroke-width:3.39853311;stroke-linecap:round;stroke-linejoin:round;stroke-miterlimit:4;stroke-dasharray:none;stroke-opacity:1"
       d="m 454.56176,494.04822 -21.92854,5.40702"
       id="path4291"
       inkscape:connector-curvature="0"
       sodipodi:nodetypes="cc" />
    <path
       inkscape:connector-curvature="0"
       id="path4293"
       d="M 483.09887,482.63337 470.48246,487.74"
       style="opacity:1;fill:none;fill-rule:evenodd;stroke:#ffff2b;stroke-width:3.39853311;stroke-linecap:round;stroke-linejoin:round;stroke-miterlimit:4;stroke-dasharray:none;stroke-opacity:1"
       sodipodi:nodetypes="cc" />
    <path
       style="opacity:1;fill:#79364b;fill-opacity:1;fill-rule:evenodd;stroke:none;stroke-width:1px;stroke-linecap:butt;stroke-linejoin:miter;stroke-opacity:1"
       d="m 380.78392,460.64656 c 1.18122,-1.44191 3.73538,0.12897 5.57572,0.42481 1.89044,0.3039 5.03138,-0.45504 5.57572,1.38066 0.42013,1.4168 -1.8062,2.40621 -3.02682,3.23923 -1.30588,0.89121 -2.87759,2.15122 -4.40747,1.75236 -1.41243,-0.36823 -2.08955,-2.10265 -2.76131,-3.39853 -0.54159,-1.04476 -1.70158,-2.4882 -0.95584,-3.39853 z"
       id="path4406"
       inkscape:connector-curvature="0"
       sodipodi:nodetypes="sssssss" />
    <path
       style="opacity:1;fill:none;fill-rule:evenodd;stroke:#79364b;stroke-width:1.69926655px;stroke-linecap:round;stroke-linejoin:round;stroke-opacity:1"
       d="m 390.56251,484.37163 c 0.70983,-1.16015 2.31181,-5.64516 0.33584,-8.20693 -3.7243,-4.8284 -8.33492,6.83347 -8.33492,6.83347 0,0 -0.45914,-11.71684 -4.38773,-10.90178 -4.10199,0.85104 -4.61337,10.32528 -4.61337,10.32528"
       id="path4408"
       inkscape:connector-curvature="0"
       sodipodi:nodetypes="cscsc" />
    <path
       style="opacity:1;fill:#ffff2b;fill-opacity:1;fill-rule:evenodd;stroke:none;stroke-width:1px;stroke-linecap:round;stroke-linejoin:round;stroke-opacity:1"
       d="m 402.39803,521.14427 c 2.92881,-0.30038 9.47775,-0.84963 13.42039,-0.96228 0,0 4.26104,12.04617 4.26104,27.55198 0,15.5058 -1.69926,27.61308 -1.69926,27.61308 -4.30127,0.21241 -8.78839,0.0265 -14.89513,-0.29206 0,0 3.21267,-19.67432 3.21267,-27.10862 0,-7.43429 -3.84264,-24.4703 -4.29971,-26.8021 z"
       id="path4412"
       inkscape:connector-curvature="0"
       sodipodi:nodetypes="ccsccsc" />
    <circle
       style="opacity:1;fill:#1c1c1c;fill-opacity:1;stroke:#ffff2b;stroke-width:3.1229763;stroke-linecap:round;stroke-linejoin:round;stroke-miterlimit:4;stroke-dasharray:none;stroke-dashoffset:0;stroke-opacity:1"
       id="path4410"
       cx="412.00793"
       cy="549.43323"
       r="12.882277" />
    <path
       style="opacity:1;fill:none;fill-rule:evenodd;stroke:#ffffff;stroke-width:1.69926655px;stroke-linecap:round;stroke-linejoin:round;stroke-opacity:1"
       d="m 405.10468,555.59307 7.54049,-6.05363 -4.56678,-8.70874"
       id="path4414"
       inkscape:connector-curvature="0"
       sodipodi:nodetypes="ccc" />
  </g>
</svg>
